<svg xmlns="http://www.w3.org/2000/svg" width="23.01" height="46.72" viewBox="0 0 23.01 46.72">
  <g id="Group_50" data-name="Group 50" transform="translate(5662 -1248)">
    <path id="Rectangle_49" data-name="Rectangle 49" d="M3.72,1.167a2.554,2.554,0,0,0-2.552,2.55V43a2.554,2.554,0,0,0,2.552,2.55H19.074A2.554,2.554,0,0,0,21.626,43V3.717a2.554,2.554,0,0,0-2.552-2.55H3.72M3.72,0H19.074a3.718,3.718,0,0,1,3.72,3.717V43a3.718,3.718,0,0,1-3.72,3.717H3.72A3.718,3.718,0,0,1,0,43V3.717A3.718,3.718,0,0,1,3.72,0Z" transform="translate(-5661.84 1248)" fill="#098b46"/>
    <rect id="Rectangle_51" data-name="Rectangle 51" width="0.237" height="1.893" rx="0.118" transform="translate(-5662 1255.374)" fill="#098b46"/>
    <rect id="Rectangle_52" data-name="Rectangle 52" width="0.237" height="3.313" rx="0.118" transform="translate(-5662 1258.738)" fill="#098b46"/>
    <rect id="Rectangle_53" data-name="Rectangle 53" width="0.237" height="3.313" rx="0.118" transform="translate(-5662 1263.368)" fill="#098b46"/>
    <rect id="Rectangle_54" data-name="Rectangle 54" width="0.237" height="5.206" rx="0.118" transform="translate(-5639.227 1260.072)" fill="#098b46"/>
    <rect id="Rectangle_50" data-name="Rectangle 50" width="4.733" height="1.42" rx="0.71" transform="translate(-5652.862 1249.596)" fill="#098b46"/>
    <path id="Path_243" data-name="Path 243" d="M8.017,16.816h6.378c1.11-.035,1.24-.482,1.456-1.185l1.218-3.957a.468.468,0,0,0,.41-.437.485.485,0,0,0-.518-.444h-.506a.489.489,0,0,1-.265-.421v-.1a.878.878,0,0,0-.762-.82V7.761a1.284,1.284,0,0,0-1.363-1.175h-.534a.525.525,0,0,0-.472-.266h-3.7a.525.525,0,0,0-.472.266H8.316a1.281,1.281,0,0,0-1.36,1.175V9.45a.883.883,0,0,0-.774.823v.1a.5.5,0,0,1-.265.421H5.451a.485.485,0,0,0-.515.444.469.469,0,0,0,.4.437l1.221,3.957c.216.7.343,1.15,1.456,1.185Zm6.992-7.364a.879.879,0,0,0-.762.82v.1a.5.5,0,0,1-.265.421H8.39a.489.489,0,0,1-.265-.421v-.1a.876.876,0,0,0-.753-.818V7.761a.888.888,0,0,1,.943-.812h.567a.528.528,0,0,0,.472.264h3.7a.529.529,0,0,0,.472-.264h.534a.886.886,0,0,1,.943.812Zm.21.639a.183.183,0,1,1-.21.181A.2.2,0,0,1,15.218,10.091Zm-8.065,0a.183.183,0,1,1-.21.181A.2.2,0,0,1,7.153,10.091Zm2.887,1.593.062,1.193H8.68l-.2-1.193Zm.08,1.555.055,1.129H8.93l-.188-1.129Zm.074,1.491.059,1.193H9.189l-.2-1.193Zm.478,1.193L10.61,14.73H11.8l-.059,1.193ZM10.6,14.368l-.059-1.129h1.339l-.056,1.129Zm-.077-1.491-.059-1.193h1.5l-.062,1.193ZM8.06,11.684l.2,1.193H6.756c-.12-.4-.241-.8-.358-1.193Zm.259,1.555.188,1.129H7.218c-.12-.375-.234-.751-.352-1.129Zm.247,1.491.2,1.193H8.1c-.37,0-.385-.04-.5-.367-.092-.275-.182-.551-.271-.825Zm3.806-3.047-.059,1.193h1.418l.2-1.193Zm-.077,1.555-.055,1.129h1.246l.188-1.129Zm-.074,1.491-.061,1.193h1.067l.2-1.193Zm2.131-3.047-.2,1.193h1.5c.123-.4.241-.8.361-1.193ZM14.1,13.239l-.188,1.129h1.286c.117-.375.234-.751.352-1.129Zm-.249,1.491-.2,1.193h.66c.37,0,.389-.04.5-.367.09-.275.179-.551.268-.825ZM5.352,11.236Z" transform="translate(-5661.651 1259.792)" fill="#098b46" fill-rule="evenodd"/>
  </g>
</svg>
