<svg xmlns="http://www.w3.org/2000/svg" width="44.924" height="44.924" viewBox="0 0 44.924 44.924">
  <path id="Union_3" data-name="Union 3" d="M22.975,46.35,2.716,26.091a2.2,2.2,0,0,1,0-3.117L22.975,2.716a2.2,2.2,0,0,1,3.117,0L46.35,22.975a2.2,2.2,0,0,1,0,3.117L26.091,46.35a2.2,2.2,0,0,1-3.117,0Zm.935-42.7L3.651,23.91a.883.883,0,0,0,0,1.247L23.91,45.415a.883.883,0,0,0,1.247,0L45.415,25.156a.883.883,0,0,0,0-1.247L25.156,3.651a.883.883,0,0,0-1.247,0Zm.165,27.93V25.194H17.687a.661.661,0,1,1,0-1.322h6.387V17.484a.661.661,0,0,1,1.322,0v6.388h6.387a.661.661,0,1,1,0,1.322H25.4v6.388a.661.661,0,0,1-1.322,0Z" transform="translate(-2.071 -2.071)" fill="#fff"/>
</svg>
