<svg xmlns="http://www.w3.org/2000/svg" width="44.924" height="44.924" viewBox="0 0 44.924 44.924">
  <path id="Union_3" data-name="Union 3" d="M22.974,46.35,2.716,26.091a2.2,2.2,0,0,1,0-3.117L22.974,2.716a2.2,2.2,0,0,1,3.117,0L46.349,22.974a2.2,2.2,0,0,1,0,3.117L26.091,46.35a2.2,2.2,0,0,1-3.117,0Zm.935-42.7L3.651,23.909a.882.882,0,0,0,0,1.247L23.909,45.415a.882.882,0,0,0,1.247,0L45.415,25.156a.884.884,0,0,0,0-1.247L25.156,3.651a.882.882,0,0,0-1.247,0Zm.165,27.931v-14.1a.661.661,0,1,1,1.322,0v14.1a.661.661,0,1,1-1.322,0Z" transform="translate(-2.071 -2.071)" fill="#fff"/>
</svg>
