<svg xmlns="http://www.w3.org/2000/svg" width="91.841" height="46.722" viewBox="0 0 91.841 46.722">
  <g id="Group_49" data-name="Group 49" transform="translate(-15.98 -133.896)">
    <path id="Path_223" data-name="Path 223" d="M67.39,191.423H47.923a1.074,1.074,0,0,1,0-2.148H67.39a1.074,1.074,0,1,1,0,2.148Z" transform="translate(-24.963 -44.784)" fill="#098b46"/>
    <g id="Group_41" data-name="Group 41" transform="translate(15.98 144.491)">
      <path id="Path_224" data-name="Path 224" d="M18.412,191.423H17.054a1.074,1.074,0,0,1,0-2.148h1.357a1.074,1.074,0,0,1,0,2.148Z" transform="translate(-15.98 -189.275)" fill="#098b46"/>
    </g>
    <g id="Group_44" data-name="Group 44" transform="translate(21.961 133.896)">
      <g id="Group_42" data-name="Group 42" transform="translate(6.229 0)">
        <path id="Path_225" data-name="Path 225" d="M93.963,136.044H80.875a1.074,1.074,0,0,1,0-2.148H93.963a1.074,1.074,0,0,1,0,2.148Z" transform="translate(-79.801 -133.896)" fill="#098b46"/>
      </g>
      <g id="Group_43" data-name="Group 43" transform="translate(0 0)">
        <path id="Path_226" data-name="Path 226" d="M49.672,136.044H48.314a1.074,1.074,0,1,1,0-2.148h1.357a1.074,1.074,0,0,1,0,2.148Z" transform="translate(-47.24 -133.896)" fill="#098b46"/>
      </g>
    </g>
    <path id="Path_227" data-name="Path 227" d="M77.287,234.938H47.578a1.074,1.074,0,0,1,0-2.148H77.287a1.074,1.074,0,1,1,0,2.148Z" transform="translate(-24.684 -79.974)" fill="#098b46"/>
    <g id="Group_45" data-name="Group 45" transform="translate(16.184 152.816)">
      <path id="Path_228" data-name="Path 228" d="M19.477,234.938H18.119a1.074,1.074,0,1,1,0-2.148h1.357a1.074,1.074,0,0,1,0,2.148Z" transform="translate(-17.045 -232.79)" fill="#098b46"/>
    </g>
    <g id="Group_47" data-name="Group 47" transform="translate(28.565 140.955)">
      <g id="Group_46" data-name="Group 46" transform="translate(9.464 0)">
        <path id="Path_229" data-name="Path 229" d="M402.256,220.582a1.072,1.072,0,0,0-.788-.345h-7.325a1.074,1.074,0,0,0-1.074,1.074v7.707a1.074,1.074,0,0,0,1.074,1.074h11.215a1.074,1.074,0,0,0,1.074-1.074v-3.51a1.069,1.069,0,0,0-.286-.73Zm2.029,7.362h-9.067v-5.558H401l3.285,3.543Z" transform="translate(-342.973 -210.778)" fill="none"/>
        <circle id="Ellipse_2" data-name="Ellipse 2" cx="2.966" cy="2.966" r="2.966" transform="translate(54.264 30.615)" fill="none"/>
        <path id="Path_230" data-name="Path 230" d="M194.864,330.816a2.966,2.966,0,1,0,2.967,2.966A2.966,2.966,0,0,0,194.864,330.816Z" transform="translate(-180.29 -300.201)" fill="none"/>
        <path id="Path_231" data-name="Path 231" d="M181.7,314.535a6.081,6.081,0,1,0,6.081,6.081A6.088,6.088,0,0,0,181.7,314.535Zm0,9.048a2.966,2.966,0,1,1,2.967-2.966A2.966,2.966,0,0,1,181.7,323.583Z" transform="translate(-167.124 -287.035)" fill="#098b46"/>
        <path id="Path_232" data-name="Path 232" d="M131.225,172.181h4.4a3.223,3.223,0,1,1,0,6.445h-4.4v1.88H145.8a3.223,3.223,0,1,1,0,6.445H131.225v1.879h13.716a3.223,3.223,0,0,1,0,6.445H131.225V203.3h6.453a8.186,8.186,0,0,1,16.242,0h21.526V170.794H131.225Z" transform="translate(-131.225 -170.794)" fill="#098b46"/>
        <path id="Path_233" data-name="Path 233" d="M404.655,314.535a6.081,6.081,0,1,0,6.081,6.081A6.088,6.088,0,0,0,404.655,314.535Zm0,9.048a2.966,2.966,0,1,1,2.966-2.966A2.966,2.966,0,0,1,404.656,323.583Z" transform="translate(-347.425 -287.035)" fill="#098b46"/>
        <path id="Path_234" data-name="Path 234" d="M387.756,204.184H373.627l-.033,8.276V230.3h2.739a8.186,8.186,0,0,1,16.242,0h4.441V214.73Zm2.927,11.852a1.074,1.074,0,0,1-1.074,1.074H378.394a1.074,1.074,0,0,1-1.074-1.074v-7.707a1.074,1.074,0,0,1,1.074-1.074h7.325a1.072,1.072,0,0,1,.788.345l3.891,4.2a1.069,1.069,0,0,1,.286.73Z" transform="translate(-327.224 -197.796)" fill="#098b46"/>
        <path id="Path_235" data-name="Path 235" d="M404.3,231.466v5.558h9.067v-2.015l-3.286-3.543Z" transform="translate(-352.055 -219.858)" fill="#098b46"/>
      </g>
      <path id="Path_236" data-name="Path 236" d="M104.938,278.446H82.832a1.074,1.074,0,1,1,0-2.148h22.106a1.074,1.074,0,1,1,0,2.148Z" transform="translate(-81.758 -256.113)" fill="#098b46"/>
    </g>
    <g id="Group_48" data-name="Group 48" transform="translate(22.967 161.14)">
      <path id="Path_237" data-name="Path 237" d="M54.208,278.446h-.632a1.074,1.074,0,1,1,0-2.148h.632a1.074,1.074,0,1,1,0,2.148Z" transform="translate(-52.502 -276.298)" fill="#098b46"/>
    </g>
  </g>
</svg>
