<svg xmlns="http://www.w3.org/2000/svg" width="40" height="40" viewBox="0 0 40 40">
  <g id="Group_1414" data-name="Group 1414" transform="translate(-1375 -4974)">
    <rect id="Rectangle_30" data-name="Rectangle 30" width="40" height="40" transform="translate(1375 4974)" fill="#fffcf2"/>
    <g id="Group_1412" data-name="Group 1412">
      <rect id="Rectangle_116" data-name="Rectangle 116" width="18" height="18" rx="5" transform="translate(1386 4985)" fill="#098b46"/>
      <path id="Path_214" data-name="Path 214" d="M20,15.878a4.621,4.621,0,1,0,3.268,1.354A4.621,4.621,0,0,0,20,15.878ZM20,23.5a3,3,0,1,1,3-3A3,3,0,0,1,20,23.5Zm5.885-7.8a1.08,1.08,0,1,1-.316-.764A1.081,1.081,0,0,1,25.885,15.7Z" transform="translate(1375 4973.5)" fill="#fff"/>
    </g>
  </g>
</svg>
