<svg xmlns="http://www.w3.org/2000/svg" width="40" height="40" viewBox="0 0 40 40">
  <g id="Frame_579521" data-name="Frame 579521" transform="translate(0 -0.5)">
    <rect id="Rectangle_34" data-name="Rectangle 34" width="40" height="40" transform="translate(0 0.5)" fill="#fffcf2"/>
    <path id="Path_218" data-name="Path 218" d="M27.615,11.5H12.385A1.384,1.384,0,0,0,11,12.885V28.115A1.384,1.384,0,0,0,12.385,29.5H27.615A1.384,1.384,0,0,0,29,28.115V12.885A1.384,1.384,0,0,0,27.615,11.5ZM17.231,24.654a.692.692,0,1,1-1.385,0V19.115a.692.692,0,1,1,1.385,0Zm-.692-6.923a1.038,1.038,0,1,1,.734-.3A1.039,1.039,0,0,1,16.538,17.731Zm8.308,6.923a.692.692,0,1,1-1.385,0V21.538a1.731,1.731,0,1,0-3.462,0v3.115a.692.692,0,1,1-1.385,0V19.115a.692.692,0,0,1,1.366-.154,3.115,3.115,0,0,1,4.864,2.577Z" fill="#098b46"/>
  </g>
</svg>
