<svg xmlns="http://www.w3.org/2000/svg" width="94.249" height="104.229" viewBox="0 0 94.249 104.229">
  <g id="org_logo" data-name="org logo" transform="translate(-0.974 -0.112)">
    <path id="Path_1" data-name="Path 1" d="M78.072,12.314s4.808.469,1.64-2.112c0,0-19.7-15.478-42.217-8.092A40.529,40.529,0,0,0,15.8,19.7a16.751,16.751,0,0,1-4.221,6.334s-17.122,20.4-7.856,46.323a48.023,48.023,0,0,0,32.954,30.609s20.172,6.1,38.934-7.387c0,0,29.084-20.054,16.417-53.828,0,0,8.21,25.8-9.263,45.031,0,0-21.461,25.331-53.828,9.5,0,0-25.8-12.7-22.75-44.054,0,0,.587-6.14,6.1-17.161,0,0,4.457-7.974,15.833-12.664,0,0,13.018-6.8,25.915-9.263A120.611,120.611,0,0,0,16.506,32.958s-3.752,2.227,2.345,2.814c0,0,22.517,5.041,38-8.679C56.847,27.09,69.629,14.659,78.072,12.314Z" transform="translate(0 0)" fill="#fff"/>
    <path id="Path_2" data-name="Path 2" d="M166.215,337.22a16.582,16.582,0,0,1-.463,2.037,26.51,26.51,0,0,1-.917,2.654c.245,0,.508.009.787.024a8.494,8.494,0,0,1,.853.094,6.547,6.547,0,0,1,.832.188,2.435,2.435,0,0,1,.681.309c.13.079.172.163.13.248a.208.208,0,0,1-.194.127.2.2,0,0,1-.194-.121.711.711,0,0,0-.248-.173,3.467,3.467,0,0,0-.551-.206,5.827,5.827,0,0,0-.778-.173,5.938,5.938,0,0,0-.929-.07h-.13l-.239.018h-.13q-.454,1.062-1,2.07a10.75,10.75,0,0,1-1.21,1.788,6.272,6.272,0,0,1-1.413,1.259,2.918,2.918,0,0,1-1.577.478,2.31,2.31,0,0,1-1.232-.318,1.129,1.129,0,0,1-.539-1,2.873,2.873,0,0,1,.387-1.513,4.472,4.472,0,0,1,1.165-1.316,7.44,7.44,0,0,1,1.813-1.017,9.689,9.689,0,0,1,2.333-.6c.2-.469.381-.917.539-1.353s.3-.838.433-1.214.239-.708.324-.993.151-.5.194-.651a4.676,4.676,0,0,1-.5.454q-.454.386-1.156.917t-1.565,1.129q-.862.6-1.761,1.1a13.961,13.961,0,0,1-1.74.838,4.1,4.1,0,0,1-1.489.333,3.1,3.1,0,0,1-1.123-.179,1.891,1.891,0,0,1-.723-.478,1.77,1.77,0,0,1-.387-.684,2.7,2.7,0,0,1-.118-.8,5.531,5.531,0,0,1,.4-1.994,9.126,9.126,0,0,1,1.114-2.027,12.08,12.08,0,0,1,1.674-1.873,13.091,13.091,0,0,1,2.064-1.549,11.02,11.02,0,0,1,2.321-1.062,7.846,7.846,0,0,1,2.43-.393,2.684,2.684,0,0,1,1.371.291,2.089,2.089,0,0,1,.723.675,2.022,2.022,0,0,1,.29.735,3.762,3.762,0,0,1,.055.487,3.164,3.164,0,0,1-.1.608,5.278,5.278,0,0,1-.269.838,3.408,3.408,0,0,1-.421.745.711.711,0,0,1-.572.324.382.382,0,0,1-.366-.2c-.073-.13,0-.254.215-.369a1.887,1.887,0,0,0,.669-.745,2.732,2.732,0,0,0,.366-1.222,1.366,1.366,0,0,0-.1-.608,1.75,1.75,0,0,0-.336-.539,1.709,1.709,0,0,0-.539-.393,1.634,1.634,0,0,0-.714-.154,6.067,6.067,0,0,0-1.955.36,10.978,10.978,0,0,0-2.073.974,13.425,13.425,0,0,0-1.976,1.455,12.52,12.52,0,0,0-1.673,1.789,9.073,9.073,0,0,0-1.156,1.976,5.234,5.234,0,0,0-.433,2.036,1.93,1.93,0,0,0,.324,1.12.91.91,0,0,0,.735.472,4.129,4.129,0,0,0,1.459-.324,14.1,14.1,0,0,0,1.728-.829c.6-.336,1.2-.714,1.791-1.129s1.141-.829,1.631-1.241a15.166,15.166,0,0,0,1.241-1.147,3.268,3.268,0,0,0,.639-.838.189.189,0,0,1,.172-.07,1.473,1.473,0,0,1,.841.173C166.158,336.917,166.245,337.06,166.215,337.22Zm-2.893,5.1a8.178,8.178,0,0,0-2.191.684,6.9,6.9,0,0,0-1.577,1.035,4.063,4.063,0,0,0-.95,1.207,2.669,2.669,0,0,0-.312,1.18.935.935,0,0,0,.281.711,1.036,1.036,0,0,0,.735.266,1.721,1.721,0,0,0,1.08-.436,5.863,5.863,0,0,0,1.059-1.156,12.831,12.831,0,0,0,.992-1.634Q162.909,343.26,163.322,342.319Z" transform="translate(-130.308 -281.524)" fill="#fff"/>
    <path id="Path_3" data-name="Path 3" d="M235.745,384.964a1.053,1.053,0,0,1-.714-.224.64.64,0,0,1-.215-.6,1.422,1.422,0,0,1,.164-.53,2.272,2.272,0,0,1,.345-.5,1.875,1.875,0,0,1,.463-.369,1.049,1.049,0,0,1,.517-.145.527.527,0,0,1,.345.1c.042-.091.172-.136.387-.136a.661.661,0,0,1,.714.838.307.307,0,0,1-.021.121.8.8,0,0,0-.042.121,1.185,1.185,0,0,0,.669.172,2.916,2.916,0,0,0,.9-.121,3.242,3.242,0,0,0,.66-.281,2.327,2.327,0,0,0,.454-.333q.173-.173.281-.272a.108.108,0,0,1,.173,0,.12.12,0,0,1,.021.172c-.03.033-.1.112-.206.23a2.126,2.126,0,0,1-.475.369,3.94,3.94,0,0,1-.757.342,3.265,3.265,0,0,1-1.068.154,2.409,2.409,0,0,1-.8-.136,2.159,2.159,0,0,1-.714.72A2,2,0,0,1,235.745,384.964Zm1.338-1.3a1.426,1.426,0,0,1-.357-.393,1.011,1.011,0,0,1-.139-.342,2.016,2.016,0,0,0-.593.487,2.319,2.319,0,0,0-.366.581.761.761,0,0,0-.064.487.254.254,0,0,0,.269.206,1.537,1.537,0,0,0,1.25-1.026Zm.13-.548c.015-.1.006-.154-.021-.154S237.186,383.015,237.213,383.118Z" transform="translate(-198.628 -324.871)" fill="#fff"/>
    <path id="Path_4" data-name="Path 4" d="M285.419,337.22a16.574,16.574,0,0,1-.463,2.037,25.761,25.761,0,0,1-.917,2.654c.245,0,.508.009.787.024s.566.048.853.094a6.546,6.546,0,0,1,.832.188,2.435,2.435,0,0,1,.681.309c.13.079.172.163.13.248a.213.213,0,0,1-.387.006.711.711,0,0,0-.248-.173,3.466,3.466,0,0,0-.551-.206,5.826,5.826,0,0,0-.778-.173,5.939,5.939,0,0,0-.929-.07h-.13l-.239.018h-.13q-.454,1.062-1,2.07a10.748,10.748,0,0,1-1.21,1.788,6.273,6.273,0,0,1-1.413,1.259,2.918,2.918,0,0,1-1.577.478,2.309,2.309,0,0,1-1.232-.318,1.129,1.129,0,0,1-.539-1,2.873,2.873,0,0,1,.387-1.513,4.471,4.471,0,0,1,1.165-1.316,7.44,7.44,0,0,1,1.813-1.017,9.688,9.688,0,0,1,2.333-.6c.2-.469.381-.917.539-1.353s.3-.838.433-1.214.239-.708.324-.993.151-.5.194-.651a4.693,4.693,0,0,1-.5.454q-.454.386-1.156.917t-1.565,1.129q-.862.6-1.761,1.1a13.968,13.968,0,0,1-1.74.838,4.1,4.1,0,0,1-1.489.333,3.1,3.1,0,0,1-1.123-.179,1.891,1.891,0,0,1-.723-.478,1.772,1.772,0,0,1-.387-.684,2.7,2.7,0,0,1-.118-.8,5.531,5.531,0,0,1,.4-1.994,9.127,9.127,0,0,1,1.114-2.027,12.077,12.077,0,0,1,1.674-1.873,13.091,13.091,0,0,1,2.064-1.549,11.019,11.019,0,0,1,2.321-1.062,7.846,7.846,0,0,1,2.43-.393,2.684,2.684,0,0,1,1.371.291,2.09,2.09,0,0,1,.723.675,2.023,2.023,0,0,1,.29.735,3.769,3.769,0,0,1,.054.487,3.166,3.166,0,0,1-.1.608,5.3,5.3,0,0,1-.269.838,3.406,3.406,0,0,1-.421.745.711.711,0,0,1-.572.324.382.382,0,0,1-.366-.2c-.073-.13,0-.254.215-.369a1.888,1.888,0,0,0,.669-.745,2.732,2.732,0,0,0,.366-1.222,1.366,1.366,0,0,0-.1-.608,1.75,1.75,0,0,0-.336-.539,1.709,1.709,0,0,0-.539-.393,1.634,1.634,0,0,0-.714-.154,6.067,6.067,0,0,0-1.955.36,10.977,10.977,0,0,0-2.073.974,13.423,13.423,0,0,0-1.976,1.455,12.52,12.52,0,0,0-1.673,1.789,9.07,9.07,0,0,0-1.156,1.976,5.233,5.233,0,0,0-.433,2.036,1.931,1.931,0,0,0,.324,1.12.911.911,0,0,0,.735.472,4.129,4.129,0,0,0,1.459-.324,14.093,14.093,0,0,0,1.728-.829c.6-.336,1.2-.714,1.791-1.129s1.141-.829,1.631-1.241a15.166,15.166,0,0,0,1.241-1.147,3.268,3.268,0,0,0,.639-.838.189.189,0,0,1,.172-.07,1.473,1.473,0,0,1,.841.173C285.362,336.917,285.446,337.06,285.419,337.22Zm-2.9,5.1a8.177,8.177,0,0,0-2.191.684,6.9,6.9,0,0,0-1.577,1.035,4.061,4.061,0,0,0-.95,1.207,2.669,2.669,0,0,0-.312,1.18.935.935,0,0,0,.281.711,1.035,1.035,0,0,0,.735.266,1.721,1.721,0,0,0,1.08-.436,5.86,5.86,0,0,0,1.059-1.156,12.831,12.831,0,0,0,.992-1.634C281.954,343.566,282.251,342.945,282.523,342.319Z" transform="translate(-231.565 -281.524)" fill="#fff"/>
    <path id="Path_5" data-name="Path 5" d="M362.126,379.769c-.03.024-.109.094-.239.215s-.288.257-.475.412-.4.321-.638.5-.475.342-.714.5a4.91,4.91,0,0,1-.69.375,1.523,1.523,0,0,1-.593.145,1.141,1.141,0,0,1-.563-.121.412.412,0,0,1-.215-.393,1.061,1.061,0,0,1,.109-.454,4.439,4.439,0,0,1,.239-.445c.088-.142.169-.272.248-.384a.88.88,0,0,0,.139-.257c0-.024-.073-.03-.215-.024s-.324.009-.539.009c-.418,0-.626-.166-.626-.5a.865.865,0,0,1,.173-.478.539.539,0,0,1,.475-.257.935.935,0,0,1,.345.07c.115.045.172.115.172.206a.51.51,0,0,1-.151.351q-.15.163-.281.3l.757-.018a.826.826,0,0,1,.517.121.254.254,0,0,1,.109.36,1.956,1.956,0,0,1-.13.272q-.086.155-.173.3c-.058.1-.112.185-.163.266s-.091.136-.118.173a.9.9,0,0,0-.163.454.161.161,0,0,0,.185.164,1.468,1.468,0,0,0,.69-.257,9.718,9.718,0,0,0,.887-.6c.3-.227.584-.454.841-.675s.445-.384.563-.487c.027-.033.091-.027.185.018S362.184,379.712,362.126,379.769Z" transform="translate(-302.722 -321.507)" fill="#fff"/>
    <path id="Path_6" data-name="Path 6" d="M385.092,383.187a1.135,1.135,0,0,0-.021.239.8.8,0,0,0,.042.257.422.422,0,0,0,.163.206.562.562,0,0,0,.336.085,2.21,2.21,0,0,0,.744-.154,5.378,5.378,0,0,0,.841-.393,6.26,6.26,0,0,0,.8-.539,5.363,5.363,0,0,0,.638-.59.145.145,0,0,1,.194-.024c.073.039.088.088.042.145a2.535,2.535,0,0,1-.336.342,6.848,6.848,0,0,1-.778.608,7.021,7.021,0,0,1-1.038.581,2.7,2.7,0,0,1-1.135.266,1.656,1.656,0,0,1-.962-.248.765.765,0,0,1-.357-.66,1.258,1.258,0,0,1,.163-.608,1.845,1.845,0,0,1,.421-.521,2.132,2.132,0,0,1,.593-.36,1.847,1.847,0,0,1,.7-.136,1.114,1.114,0,0,1,.551.127.457.457,0,0,1,.227.436.6.6,0,0,1-.109.324,1.193,1.193,0,0,1-.3.318,1.89,1.89,0,0,1-.475.248,1.853,1.853,0,0,1-.648.1.715.715,0,0,1-.164-.018C385.183,383.211,385.138,383.2,385.092,383.187Zm.067-.169a.429.429,0,0,0,.151.018,1.122,1.122,0,0,0,.4-.076,1.487,1.487,0,0,0,.387-.215,1.109,1.109,0,0,0,.29-.318.7.7,0,0,0,.109-.369c0-.058-.036-.085-.109-.085a1.164,1.164,0,0,0-.539.17,1.663,1.663,0,0,0-.357.309A1.99,1.99,0,0,0,385.159,383.017Z" transform="translate(-325.582 -324.12)" fill="#fff"/>
    <path id="Path_7" data-name="Path 7" d="M411.482,383.187a1.138,1.138,0,0,0-.021.239.8.8,0,0,0,.042.257.422.422,0,0,0,.163.206.562.562,0,0,0,.336.085,2.212,2.212,0,0,0,.745-.154,5.38,5.38,0,0,0,.841-.393,6.263,6.263,0,0,0,.8-.539,5.381,5.381,0,0,0,.639-.59.144.144,0,0,1,.194-.024c.073.039.088.088.042.145a2.532,2.532,0,0,1-.336.342,6.84,6.84,0,0,1-.778.608,7.013,7.013,0,0,1-1.038.581,2.7,2.7,0,0,1-1.135.266,1.656,1.656,0,0,1-.962-.248.764.764,0,0,1-.357-.66,1.256,1.256,0,0,1,.163-.608,1.839,1.839,0,0,1,.421-.521,2.129,2.129,0,0,1,.593-.36,1.847,1.847,0,0,1,.7-.136,1.114,1.114,0,0,1,.551.127.457.457,0,0,1,.227.436.6.6,0,0,1-.109.324,1.193,1.193,0,0,1-.3.318,1.894,1.894,0,0,1-.475.248,1.854,1.854,0,0,1-.648.1.711.711,0,0,1-.163-.018C411.573,383.211,411.527,383.2,411.482,383.187Zm.067-.169a.428.428,0,0,0,.151.018,1.122,1.122,0,0,0,.4-.076,1.484,1.484,0,0,0,.387-.215,1.112,1.112,0,0,0,.291-.318.705.705,0,0,0,.109-.369c0-.058-.036-.085-.109-.085a1.165,1.165,0,0,0-.539.17,1.663,1.663,0,0,0-.357.309A1.99,1.99,0,0,0,411.549,383.017Z" transform="translate(-347.999 -324.12)" fill="#fff"/>
    <path id="Path_8" data-name="Path 8" d="M438.425,380.726a2.691,2.691,0,0,0-.3.4,4.9,4.9,0,0,0-.312.548c-.094.188-.172.363-.239.52a1.109,1.109,0,0,0-.1.342c.172-.115.418-.3.735-.557s.654-.517,1.014-.787.708-.505,1.047-.711a1.729,1.729,0,0,1,.832-.309q.063,0,.172.009a.932.932,0,0,1,.227.051.43.43,0,0,1,.185.121.209.209,0,0,1,.021.215,1.448,1.448,0,0,1-.185.393c-.109.182-.227.375-.357.581s-.245.405-.345.6a2.985,2.985,0,0,0-.194.427,1.061,1.061,0,0,0-.055.291c-.006.115.039.172.139.172a1.438,1.438,0,0,0,.69-.309,10.621,10.621,0,0,0,.908-.693c.3-.257.572-.493.811-.711a2.987,2.987,0,0,0,.378-.375c.042-.057.109-.057.194,0s.109.1.063.136a7.726,7.726,0,0,1-.563.572c-.26.245-.539.49-.841.735a8.733,8.733,0,0,1-.9.642,1.521,1.521,0,0,1-.744.272,1.142,1.142,0,0,1-.66-.173.453.453,0,0,1-.227-.427,1.921,1.921,0,0,1,.206-.72c.121-.251.248-.484.378-.7a5.684,5.684,0,0,1,.357-.539.956.956,0,0,0,.163-.248,1.589,1.589,0,0,0-.669.272c-.272.172-.569.375-.887.617s-.629.481-.938.726-.587.454-.832.624a.632.632,0,0,1-.324.1.7.7,0,0,1-.442-.163.414.414,0,0,1-.185-.369,1.647,1.647,0,0,1,.185-.53,5.988,5.988,0,0,1,.366-.632,3.968,3.968,0,0,1,.412-.53c.136-.148.242-.224.312-.224a.622.622,0,0,1,.433.121C438.446,380.6,438.467,380.668,438.425,380.726Z" transform="translate(-370.081 -322.839)" fill="#fff"/>
    <path id="Path_9" data-name="Path 9" d="M108.887,449.49a1.283,1.283,0,0,0,.009.167c.006.045.018.07.039.07a.044.044,0,0,1,.03.042c0,.021-.027.03-.079.03a.442.442,0,0,1-.142-.064q-.109-.063-.109-.272a.946.946,0,0,1,.094-.336,1.348,1.348,0,0,1,.354-.454,2.245,2.245,0,0,1,.714-.4,3.362,3.362,0,0,1,1.174-.173c.345,0,.7.009,1.05.03s.714.048,1.08.082l.157-.312a.309.309,0,0,1,.221-.076.653.653,0,0,1,.315.076c.094.048.124.1.094.148a.43.43,0,0,0-.03.064.4.4,0,0,0-.03.07.738.738,0,0,1-.048.106l1.958.194a11.585,11.585,0,0,0,1.819.042c.272-.015.542-.042.814-.076a4.867,4.867,0,0,0,.729-.142,1.721,1.721,0,0,0,.524-.236.408.408,0,0,0,.2-.342c0-.042-.009-.07-.03-.082s-.042-.027-.064-.042a.057.057,0,0,1-.024-.064c.006-.024.027-.03.07-.012a.794.794,0,0,1,.157.082.249.249,0,0,1,.109.23.69.69,0,0,1-.085.242.953.953,0,0,1-.36.336,3.157,3.157,0,0,1-.775.306,5.866,5.866,0,0,1-1.331.161,17.921,17.921,0,0,1-1.84-.048q-1.026-.073-2.046-.16c-.136.29-.315.678-.542,1.162s-.469,1-.729,1.552-.523,1.108-.793,1.67-.505,1.077-.72,1.54-.393.844-.542,1.144-.224.46-.236.484c-.03.067-.121.1-.266.1a.667.667,0,0,1-.236-.043c-.073-.03-.106-.07-.094-.118a7.178,7.178,0,0,1,.257-.684c.139-.339.318-.741.533-1.2l.7-1.5q.377-.808.744-1.589t.7-1.459c.218-.451.4-.82.533-1.111-.669-.058-1.265-.094-1.785-.112a6.759,6.759,0,0,0-.69.042,3.519,3.519,0,0,0-.735.16,1.832,1.832,0,0,0-.581.312A.574.574,0,0,0,108.887,449.49Z" transform="translate(-91.452 -380.041)" fill="#fff"/>
    <path id="Path_10" data-name="Path 10" d="M135.073,489.291a.953.953,0,0,0-.015.173.557.557,0,0,0,.03.188.309.309,0,0,0,.118.148.4.4,0,0,0,.242.064,1.586,1.586,0,0,0,.542-.112,4.086,4.086,0,0,0,.611-.284,4.632,4.632,0,0,0,.581-.39,3.807,3.807,0,0,0,.463-.43.107.107,0,0,1,.142-.018c.051.03.064.064.03.106a1.572,1.572,0,0,1-.242.248,4.832,4.832,0,0,1-.563.442,5.208,5.208,0,0,1-.754.424,1.971,1.971,0,0,1-.823.194,1.209,1.209,0,0,1-.7-.179.554.554,0,0,1-.257-.478.922.922,0,0,1,.118-.442,1.325,1.325,0,0,1,.306-.378,1.536,1.536,0,0,1,.43-.26,1.324,1.324,0,0,1,.508-.1.78.78,0,0,1,.4.094.335.335,0,0,1,.163.318.448.448,0,0,1-.079.236.827.827,0,0,1-.221.23,1.31,1.31,0,0,1-.345.179,1.4,1.4,0,0,1-.469.076.484.484,0,0,1-.118-.012A.814.814,0,0,0,135.073,489.291Zm.048-.124a.316.316,0,0,0,.109.012.848.848,0,0,0,.29-.055,1.066,1.066,0,0,0,.281-.154.8.8,0,0,0,.212-.23.52.52,0,0,0,.079-.266c0-.043-.027-.064-.079-.064a.955.955,0,0,0-.157.024.846.846,0,0,0-.236.1,1.052,1.052,0,0,0-.257.224A1.5,1.5,0,0,0,135.121,489.167Z" transform="translate(-113.407 -414.604)" fill="#fff"/>
    <path id="Path_11" data-name="Path 11" d="M155.884,488.627a.172.172,0,0,1-.172.124c-.094,0-.142-.033-.142-.1a.1.1,0,0,1,.039-.088.209.209,0,0,0,.07-.112c.03-.124-.03-.188-.188-.188a.7.7,0,0,0-.508.23,1.349,1.349,0,0,0-.321.508.794.794,0,0,0-.015.514c.051.157.194.236.424.236a1.348,1.348,0,0,0,.517-.118,3.228,3.228,0,0,0,.563-.306,5.434,5.434,0,0,0,.548-.414,4.548,4.548,0,0,0,.454-.442.084.084,0,0,1,.124-.018c.051.03.067.064.048.106a1.792,1.792,0,0,1-.227.26,5.106,5.106,0,0,1-.542.484,4.38,4.38,0,0,1-.76.472,2.081,2.081,0,0,1-.917.212,1.017,1.017,0,0,1-.581-.142.647.647,0,0,1-.266-.354.819.819,0,0,1,.009-.466,1.332,1.332,0,0,1,.236-.466,1.437,1.437,0,0,1,.415-.354,1.1,1.1,0,0,1,.548-.142.728.728,0,0,1,.548.166A.386.386,0,0,1,155.884,488.627Z" transform="translate(-129.987 -414.484)" fill="#fff"/>
    <path id="Path_12" data-name="Path 12" d="M173.288,455.448a.415.415,0,0,1-.33-.1.256.256,0,0,1-.048-.224,12.405,12.405,0,0,1,.666-1.8,15.4,15.4,0,0,1,.947-1.758,16.043,16.043,0,0,1,1.135-1.595,10.622,10.622,0,0,1,1.232-1.3,6.058,6.058,0,0,1,1.247-.868,2.564,2.564,0,0,1,1.168-.318,1.117,1.117,0,0,1,.754.23.718.718,0,0,1,.266.566,2.27,2.27,0,0,1-.281,1.05,5.152,5.152,0,0,1-.76,1.068,9.137,9.137,0,0,1-1.1,1.017,15.841,15.841,0,0,1-1.292.92,15.277,15.277,0,0,1-1.356.769c-.454.227-.881.415-1.277.566a6.059,6.059,0,0,0-.3.666c-.085.221-.166.436-.251.651.167-.133.36-.288.581-.466s.442-.345.666-.5a5.814,5.814,0,0,1,.642-.4,1.126,1.126,0,0,1,.508-.16c.03,0,.073,0,.124.006a.622.622,0,0,1,.157.036.465.465,0,0,1,.142.088.192.192,0,0,1,.064.154,1.135,1.135,0,0,1-.157.478c-.106.2-.215.4-.33.6s-.206.363-.275.5-.07.212-.009.212a1.06,1.06,0,0,0,.5-.224,7.445,7.445,0,0,0,.657-.5c.221-.188.414-.357.587-.514a2.337,2.337,0,0,0,.275-.272c.03-.042.079-.042.142,0s.079.076.048.1a5.47,5.47,0,0,1-.408.414c-.188.179-.39.357-.611.533a6.062,6.062,0,0,1-.651.466,1.088,1.088,0,0,1-.542.2c-.418,0-.626-.115-.626-.348a.9.9,0,0,1,.124-.384c.085-.157.172-.318.266-.484s.182-.324.266-.472a.776.776,0,0,0,.124-.348,1.152,1.152,0,0,0-.493.206c-.2.127-.421.282-.651.46s-.457.363-.681.554-.421.348-.587.472a.139.139,0,0,1-.118.054C173.394,455.448,173.339,455.448,173.288,455.448Zm6.252-7.574a2.272,2.272,0,0,0-1.253.478,7.892,7.892,0,0,0-1.386,1.259,14.734,14.734,0,0,0-1.347,1.776,19.823,19.823,0,0,0-1.168,2.036,15.962,15.962,0,0,0,2.006-1.05,13.814,13.814,0,0,0,1.8-1.3,7.53,7.53,0,0,0,1.292-1.4,2.393,2.393,0,0,0,.493-1.346c0-.191-.045-.312-.133-.366A.616.616,0,0,0,179.54,447.873Z" transform="translate(-146.042 -380.016)" fill="#fff"/>
    <path id="Path_13" data-name="Path 13" d="M204.18,487.478a2.225,2.225,0,0,0-.221.291,3.447,3.447,0,0,0-.227.4c-.067.136-.124.263-.173.378a.743.743,0,0,0-.07.248c.124-.082.3-.218.533-.4s.475-.375.735-.572.514-.366.76-.514a1.271,1.271,0,0,1,.6-.224c.03,0,.073,0,.124.006a.69.69,0,0,1,.163.036.284.284,0,0,1,.133.088.156.156,0,0,1,.015.154.972.972,0,0,1-.133.284c-.079.133-.164.272-.257.424s-.179.293-.251.436a2.452,2.452,0,0,0-.142.312.78.78,0,0,0-.039.212c-.006.082.027.124.1.124a1.063,1.063,0,0,0,.5-.224,7.9,7.9,0,0,0,.657-.5c.218-.188.415-.357.587-.514a2.332,2.332,0,0,0,.275-.272c.03-.042.079-.042.142,0s.079.076.048.1a4.9,4.9,0,0,1-.408.414c-.188.179-.39.357-.611.533a6.394,6.394,0,0,1-.651.466,1.088,1.088,0,0,1-.542.2.835.835,0,0,1-.478-.124.325.325,0,0,1-.163-.312,1.377,1.377,0,0,1,.148-.521c.088-.182.182-.351.275-.508s.182-.288.257-.39a.741.741,0,0,0,.118-.179,1.176,1.176,0,0,0-.487.2c-.2.124-.412.272-.642.448s-.457.351-.681.526-.427.33-.6.454a.487.487,0,0,1-.236.076.507.507,0,0,1-.321-.118.3.3,0,0,1-.133-.266,1.157,1.157,0,0,1,.133-.384,4.109,4.109,0,0,1,.266-.46,3.341,3.341,0,0,1,.3-.384c.1-.109.176-.16.227-.16a.466.466,0,0,1,.315.088C204.2,487.388,204.214,487.436,204.18,487.478Z" transform="translate(-171.514 -413.647)" fill="#fff"/>
    <path id="Path_14" data-name="Path 14" d="M233.555,490.565a.783.783,0,0,1-.517-.16.471.471,0,0,1-.157-.436.981.981,0,0,1,.118-.384,1.565,1.565,0,0,1,.251-.36,1.344,1.344,0,0,1,.336-.266.768.768,0,0,1,.375-.106.389.389,0,0,1,.251.076q.045-.1.281-.1a.479.479,0,0,1,.517.608.254.254,0,0,1-.015.088c-.009.024-.021.055-.03.088a.875.875,0,0,0,.487.124,2.184,2.184,0,0,0,.651-.088,2.418,2.418,0,0,0,.478-.206,1.687,1.687,0,0,0,.33-.242c.085-.082.151-.148.2-.2a.076.076,0,0,1,.124,0,.083.083,0,0,1,.015.124c-.021.024-.07.082-.148.166a1.5,1.5,0,0,1-.345.266,3.11,3.11,0,0,1-.548.248,2.342,2.342,0,0,1-.775.112,1.734,1.734,0,0,1-.581-.1,1.542,1.542,0,0,1-.517.521A1.375,1.375,0,0,1,233.555,490.565Zm.971-.941a1.009,1.009,0,0,1-.257-.284.811.811,0,0,1-.1-.248,1.431,1.431,0,0,0-.43.354,1.652,1.652,0,0,0-.266.424.569.569,0,0,0-.048.354.183.183,0,0,0,.2.148,1.147,1.147,0,0,0,.414-.142A1.181,1.181,0,0,0,234.526,489.624Zm.094-.4c.009-.076.006-.112-.015-.112S234.6,489.152,234.62,489.224Z" transform="translate(-196.985 -415.133)" fill="#fff"/>
    <path id="Path_15" data-name="Path 15" d="M260.79,452.863a3.648,3.648,0,0,0-.218,1.1.905.905,0,0,0,.142.566.544.544,0,0,0,.487.23,2.893,2.893,0,0,0,.862-.154,7,7,0,0,0,.98-.4,8.631,8.631,0,0,0,.962-.566,6.245,6.245,0,0,0,.814-.651.1.1,0,0,1,.148,0c.057.042.067.082.024.124a8.164,8.164,0,0,1-.853.684,9.008,9.008,0,0,1-1,.608,6.588,6.588,0,0,1-1.035.442,3.147,3.147,0,0,1-.971.167,2.894,2.894,0,0,1-.4-.03,1.38,1.38,0,0,1-.439-.142,1.069,1.069,0,0,1-.369-.324.924.924,0,0,1-.157-.56,3.774,3.774,0,0,1,.321-1.483A9.248,9.248,0,0,1,261,450.8a14.853,14.853,0,0,1,1.307-1.664,12.767,12.767,0,0,1,1.528-1.44,8.544,8.544,0,0,1,1.583-1.011,3.337,3.337,0,0,1,1.449-.384,1.237,1.237,0,0,1,.729.194.65.65,0,0,1,.275.566,2.088,2.088,0,0,1-.557,1.223,9.471,9.471,0,0,1-1.519,1.471,23.676,23.676,0,0,1-2.257,1.577C262.678,451.861,261.761,452.375,260.79,452.863Zm.109-.309q1.425-.731,2.642-1.489a20.725,20.725,0,0,0,2.106-1.483,8.92,8.92,0,0,0,1.4-1.377,1.978,1.978,0,0,0,.508-1.15.472.472,0,0,0-.094-.306.34.34,0,0,0-.281-.118,1.979,1.979,0,0,0-.847.224,7.453,7.453,0,0,0-1.12.657,13.843,13.843,0,0,0-1.247.992,14.794,14.794,0,0,0-1.232,1.235,13.375,13.375,0,0,0-1.074,1.386A7.911,7.911,0,0,0,260.9,452.554Z" transform="translate(-219.833 -379.007)" fill="#fff"/>
    <path id="Path_16" data-name="Path 16" d="M291.418,490.565a.783.783,0,0,1-.517-.16.471.471,0,0,1-.157-.436.984.984,0,0,1,.118-.384,1.569,1.569,0,0,1,.251-.36,1.345,1.345,0,0,1,.336-.266.768.768,0,0,1,.375-.106.388.388,0,0,1,.251.076q.045-.1.282-.1a.478.478,0,0,1,.517.608.254.254,0,0,1-.015.088c-.009.024-.021.055-.03.088a.875.875,0,0,0,.487.124,2.183,2.183,0,0,0,.651-.088,2.414,2.414,0,0,0,.478-.206,1.689,1.689,0,0,0,.33-.242c.085-.082.151-.148.2-.2a.076.076,0,0,1,.124,0,.083.083,0,0,1,.015.124c-.021.024-.07.082-.148.166a1.5,1.5,0,0,1-.345.266,3.11,3.11,0,0,1-.548.248,2.342,2.342,0,0,1-.775.112,1.735,1.735,0,0,1-.581-.1,1.542,1.542,0,0,1-.517.521A1.369,1.369,0,0,1,291.418,490.565Zm.971-.941a1.007,1.007,0,0,1-.257-.284.812.812,0,0,1-.1-.248,1.434,1.434,0,0,0-.43.354,1.652,1.652,0,0,0-.266.424.569.569,0,0,0-.048.354.183.183,0,0,0,.2.148,1.149,1.149,0,0,0,.415-.142A1.182,1.182,0,0,0,292.389,489.624Zm.094-.4c.009-.076.006-.112-.015-.112S292.462,489.152,292.483,489.224Z" transform="translate(-246.136 -415.133)" fill="#fff"/>
    <path id="Path_17" data-name="Path 17" d="M304.076,492.722a1.6,1.6,0,0,1,.221-.672,2.4,2.4,0,0,1,.6-.651,6.893,6.893,0,0,1,1.089-.678q.672-.35,1.661-.744c.03-.182.058-.363.079-.548a4.832,4.832,0,0,0,.03-.56c-.085.1-.182.206-.29.324a2.534,2.534,0,0,1-.369.318,2.032,2.032,0,0,1-.43.23,1.211,1.211,0,0,1-.478.076.765.765,0,0,1-.469-.167.409.409,0,0,1-.124-.378,1.039,1.039,0,0,1,.2-.49,1.666,1.666,0,0,1,.409-.4,2.058,2.058,0,0,1,.533-.272,1.64,1.64,0,0,1,.587-.088.979.979,0,0,1,.33.076.688.688,0,0,1,.221.148.427.427,0,0,1,.2-.048.434.434,0,0,1,.242.07.147.147,0,0,1,.07.118,4.268,4.268,0,0,1,.024.584,6.138,6.138,0,0,1-.07.732c.2-.1.4-.212.611-.342s.4-.257.581-.39.339-.257.487-.378a2.936,2.936,0,0,0,.33-.306.1.1,0,0,1,.163-.006c.058.055.067.1.024.13a7.865,7.865,0,0,1-.98.826,6.477,6.477,0,0,1-1.247.714,8.771,8.771,0,0,1-.336,1.31,4.8,4.8,0,0,1-.611,1.229,3.069,3.069,0,0,1-.926.887,2.165,2.165,0,0,1-1.277.3,1.3,1.3,0,0,1-.823-.284A.766.766,0,0,1,304.076,492.722Zm.36.012a.562.562,0,0,0,.148.472.7.7,0,0,0,.448.212,1.433,1.433,0,0,0,.847-.23,2.816,2.816,0,0,0,.744-.7,4.74,4.74,0,0,0,.587-1.032,6.873,6.873,0,0,0,.39-1.247c-.575.239-1.059.463-1.458.672a5.488,5.488,0,0,0-.962.614,2.308,2.308,0,0,0-.542.6A1.584,1.584,0,0,0,304.436,492.734Zm3.323-4.2a.1.1,0,0,0-.009-.042.039.039,0,0,1,.009-.042.373.373,0,0,0-.094-.118.3.3,0,0,0-.157-.07.905.905,0,0,0-.414.094,2.088,2.088,0,0,0-.463.278,2.121,2.121,0,0,0-.375.378.75.75,0,0,0-.172.4.412.412,0,0,0,.024.13.13.13,0,0,0,.118.082,1.175,1.175,0,0,0,.745-.29A3.829,3.829,0,0,0,307.759,488.537Z" transform="translate(-257.463 -414.446)" fill="#fff"/>
    <path id="Path_18" data-name="Path 18" d="M343.556,484.9a2.833,2.833,0,0,0-.227.324,3.456,3.456,0,0,0-.251.478,1.009,1.009,0,0,0-.094.424c.006.121.085.176.242.167a1.149,1.149,0,0,0,.508-.188,3.872,3.872,0,0,0,.548-.4c.173-.148.324-.291.454-.424s.212-.215.242-.248a.129.129,0,0,1,.157-.018c.051.03.064.064.03.106q-.127.122-.345.354a5.009,5.009,0,0,1-.487.448,3.855,3.855,0,0,1-.572.384,1.536,1.536,0,0,1-.6.194,1.1,1.1,0,0,1-.542-.082.424.424,0,0,1-.257-.4,1.2,1.2,0,0,1,.085-.39,2.876,2.876,0,0,1,.212-.448,2.572,2.572,0,0,1,.257-.372q.132-.154.227-.154a.434.434,0,0,1,.33.082C343.574,484.8,343.6,484.858,343.556,484.9Zm-.218-.62c0-.157.1-.236.3-.236s.3.079.3.236-.1.236-.3.236S343.339,484.438,343.339,484.28Z" transform="translate(-289.986 -411.069)" fill="#fff"/>
    <path id="Path_19" data-name="Path 19" d="M357.8,489.291a.962.962,0,0,0-.015.173.557.557,0,0,0,.03.188.309.309,0,0,0,.118.148.4.4,0,0,0,.242.064,1.586,1.586,0,0,0,.542-.112,4.238,4.238,0,0,0,.611-.284,4.641,4.641,0,0,0,.581-.39,3.805,3.805,0,0,0,.463-.43.107.107,0,0,1,.142-.018c.051.03.064.064.03.106a1.571,1.571,0,0,1-.242.248,4.836,4.836,0,0,1-.563.442,5.211,5.211,0,0,1-.754.424,1.971,1.971,0,0,1-.823.194,1.209,1.209,0,0,1-.7-.179.554.554,0,0,1-.257-.478.922.922,0,0,1,.118-.442,1.325,1.325,0,0,1,.306-.378,1.537,1.537,0,0,1,.43-.26,1.324,1.324,0,0,1,.508-.1.781.781,0,0,1,.4.094.335.335,0,0,1,.163.318.448.448,0,0,1-.079.236.827.827,0,0,1-.221.23,1.311,1.311,0,0,1-.345.179,1.4,1.4,0,0,1-.469.076.484.484,0,0,1-.118-.012C357.868,489.31,357.834,489.3,357.8,489.291Zm.045-.124a.316.316,0,0,0,.109.012.848.848,0,0,0,.29-.055,1.065,1.065,0,0,0,.281-.154.8.8,0,0,0,.212-.23.521.521,0,0,0,.079-.266c0-.043-.027-.064-.079-.064a.956.956,0,0,0-.157.024.846.846,0,0,0-.236.1,1.051,1.051,0,0,0-.257.224A1.5,1.5,0,0,0,357.849,489.167Z" transform="translate(-302.603 -414.604)" fill="#fff"/>
    <path id="Path_20" data-name="Path 20" d="M375.652,486.823c-.085-.173-.188-.363-.315-.572a1.242,1.242,0,0,1-.2-.52.4.4,0,0,1,.188-.4.9.9,0,0,1,.469-.124.591.591,0,0,1,.384.1.352.352,0,0,1,.133.236c0,.009,0,.033-.009.076a.356.356,0,0,1-.055.136.571.571,0,0,1-.148.148.879.879,0,0,1-.29.124,2.892,2.892,0,0,0,.2.36,2.281,2.281,0,0,1,.188.336,2.931,2.931,0,0,0,.956-.33c.218-.136.39-.251.517-.342a.1.1,0,0,1,.148.006c.048.045.045.088-.009.13a4.531,4.531,0,0,1-.533.342,3.585,3.585,0,0,1-1.02.342,1.154,1.154,0,0,1,.048.336.548.548,0,0,1-.07.33.782.782,0,0,1-.236.242,1.123,1.123,0,0,1-.33.148,1.375,1.375,0,0,1-.369.048q-.722,0-.69-.472a.434.434,0,0,1,.039-.179.5.5,0,0,1,.148-.182,1.2,1.2,0,0,1,.315-.166A3.285,3.285,0,0,1,375.652,486.823Zm.079.16a1.641,1.641,0,0,0-.681.266.294.294,0,0,0-.118.278.249.249,0,0,0,.3.236.684.684,0,0,0,.321-.172.582.582,0,0,0,.2-.472A.523.523,0,0,0,375.731,486.983Zm.015-1.117c.221-.082.33-.182.33-.3,0-.1-.057-.148-.173-.148a.308.308,0,0,0-.163.055q-.086.054-.055.218a.269.269,0,0,1,.039.094A.232.232,0,0,0,375.746,485.867Z" transform="translate(-317.38 -412.06)" fill="#fff"/>
    <path id="Path_21" data-name="Path 21" d="M424.515,447.261a.182.182,0,0,0-.124-.012.667.667,0,0,0-.124.055.868.868,0,0,0-.227.179,1.168,1.168,0,0,0-.212.336,1.3,1.3,0,0,0-.094.533.94.94,0,0,0,.085.312,1.025,1.025,0,0,0,.336.409,11.02,11.02,0,0,1,1.1-1.156,8.761,8.761,0,0,1,1.268-.956,6.71,6.71,0,0,1,1.371-.645,4.372,4.372,0,0,1,1.395-.236,2.035,2.035,0,0,1,1.02.218.748.748,0,0,1,.375.7,1.458,1.458,0,0,1-.409.926,4.167,4.167,0,0,1-1.1.875,7.149,7.149,0,0,1-3.48.9,3.706,3.706,0,0,1-.956-.112,7.31,7.31,0,0,0-.908,1.483,3.591,3.591,0,0,0-.345,1.483,1.817,1.817,0,0,0,.635,1.483,2.533,2.533,0,0,0,1.671.527,3.475,3.475,0,0,0,.753-.094,4.279,4.279,0,0,0,.887-.312,5.1,5.1,0,0,0,.941-.59,5,5,0,0,0,.9-.932.123.123,0,0,1,.163-.024c.067.033.082.076.039.124-.021.024-.118.145-.29.36a4.36,4.36,0,0,1-.744.7,5.793,5.793,0,0,1-1.174.678,3.855,3.855,0,0,1-1.568.306,4.372,4.372,0,0,1-1.253-.166,2.979,2.979,0,0,1-.962-.472,2.14,2.14,0,0,1-.62-.738,2.109,2.109,0,0,1-.221-.956,3.88,3.88,0,0,1,.36-1.534,7.959,7.959,0,0,1,.971-1.634,1.235,1.235,0,0,1-.626-1.092,1.059,1.059,0,0,1,.1-.472,1.616,1.616,0,0,1,.242-.372,1.011,1.011,0,0,1,.315-.248.719.719,0,0,1,.315-.088c.166,0,.251.057.251.172a.091.091,0,0,1-.024.07C424.539,447.267,424.527,447.27,424.515,447.261Zm.408,2.148c.1.018.212.03.321.042a3.36,3.36,0,0,0,.369.018,6.779,6.779,0,0,0,1.725-.224,6.438,6.438,0,0,0,1.5-.59,4.06,4.06,0,0,0,1.065-.826,1.389,1.389,0,0,0,.408-.92.362.362,0,0,0-.212-.354.867.867,0,0,0-.369-.106,2.986,2.986,0,0,0-1.12.218,7.171,7.171,0,0,0-1.268.632,10.273,10.273,0,0,0-1.277.944A10.155,10.155,0,0,0,424.924,449.41Z" transform="translate(-358.19 -378.82)" fill="#fff"/>
    <path id="Path_22" data-name="Path 22" d="M463.762,490.565a.777.777,0,0,1-.517-.16.471.471,0,0,1-.157-.436.987.987,0,0,1,.118-.384,1.57,1.57,0,0,1,.251-.36,1.347,1.347,0,0,1,.336-.266.769.769,0,0,1,.375-.106.389.389,0,0,1,.251.076q.045-.1.281-.1a.478.478,0,0,1,.517.608.252.252,0,0,1-.015.088c-.009.024-.021.055-.03.088a.875.875,0,0,0,.487.124,2.183,2.183,0,0,0,.651-.088,2.418,2.418,0,0,0,.478-.206,1.692,1.692,0,0,0,.33-.242c.085-.082.151-.148.2-.2a.076.076,0,0,1,.124,0,.083.083,0,0,1,.015.124c-.021.024-.07.082-.148.166a1.5,1.5,0,0,1-.345.266,3.111,3.111,0,0,1-.548.248,2.343,2.343,0,0,1-.775.112,1.734,1.734,0,0,1-.581-.1,1.544,1.544,0,0,1-.518.521A1.368,1.368,0,0,1,463.762,490.565Zm.971-.941a1,1,0,0,1-.257-.284.819.819,0,0,1-.1-.248,1.436,1.436,0,0,0-.43.354,1.647,1.647,0,0,0-.266.424.569.569,0,0,0-.048.354.183.183,0,0,0,.2.148,1.148,1.148,0,0,0,.415-.142A1.182,1.182,0,0,0,464.733,489.624Zm.094-.4c.009-.076.006-.112-.015-.112S464.806,489.152,464.827,489.224Z" transform="translate(-392.532 -415.133)" fill="#fff"/>
    <path id="Path_23" data-name="Path 23" d="M493.748,486.743l-.172.154c-.094.085-.209.188-.345.3s-.29.233-.463.36-.345.248-.517.36a3.3,3.3,0,0,1-.5.272,1.124,1.124,0,0,1-.43.106.854.854,0,0,1-.409-.088.3.3,0,0,1-.157-.285.786.786,0,0,1,.079-.33,3.315,3.315,0,0,1,.173-.324c.064-.1.124-.2.182-.278a.705.705,0,0,0,.1-.188c0-.015-.051-.024-.157-.018s-.236.006-.39.006c-.3,0-.454-.121-.454-.36a.642.642,0,0,1,.124-.348.4.4,0,0,1,.345-.188.74.74,0,0,1,.251.049c.085.033.124.082.124.148a.369.369,0,0,1-.109.254c-.073.079-.142.151-.2.218l.548-.012a.607.607,0,0,1,.375.088.185.185,0,0,1,.079.26,1.388,1.388,0,0,1-.094.2c-.042.076-.085.148-.124.218l-.118.194c-.036.058-.067.1-.085.124a.627.627,0,0,0-.118.33.116.116,0,0,0,.133.118,1.092,1.092,0,0,0,.5-.188,6.708,6.708,0,0,0,.642-.436c.221-.166.423-.33.611-.49s.324-.278.409-.354c.021-.024.066-.021.133.012S493.79,486.7,493.748,486.743Z" transform="translate(-415.639 -412.64)" fill="#fff"/>
    <path id="Path_24" data-name="Path 24" d="M494.635,488.327a.894.894,0,0,1-.055.136c-.036.082-.085.2-.148.348a5.239,5.239,0,0,1,.941-.548,2.111,2.111,0,0,1,.847-.2,1,1,0,0,1,.548.13.376.376,0,0,1,.188.366,1.351,1.351,0,0,1-.109.46,1.814,1.814,0,0,1-.251.408,5.285,5.285,0,0,0,.814-.324,4.807,4.807,0,0,0,.581-.336c.157-.109.275-.2.36-.272s.13-.115.142-.124a.122.122,0,0,1,.148,0c.058.033.067.07.024.112a2.931,2.931,0,0,1-1.05.756,9.065,9.065,0,0,1-1.268.46,3.664,3.664,0,0,1-.548.4,4.509,4.509,0,0,1-.6.306,4.29,4.29,0,0,1-.587.194,2.166,2.166,0,0,1-.5.07.689.689,0,0,1-.408-.088c-.115.272-.236.551-.36.832l-.36.814c-.115.26-.224.505-.33.732s-.194.424-.266.59a3.978,3.978,0,0,1-.714,1.092,1.065,1.065,0,0,1-.76.348.421.421,0,0,1-.375-.16.673.673,0,0,1-.109-.384,2.608,2.608,0,0,1,.227-.962,8.631,8.631,0,0,1,.6-1.168,12.924,12.924,0,0,1,.878-1.247,14.853,14.853,0,0,1,1.05-1.192c.094-.239.182-.46.266-.666s.157-.378.221-.526c.073-.172.136-.33.188-.472a.19.19,0,0,1,.157-.136,1.653,1.653,0,0,1,.2-.012.57.57,0,0,1,.36.082A.163.163,0,0,1,494.635,488.327Zm-1.722,2.2a12.3,12.3,0,0,0-1.652,2.248,3.9,3.9,0,0,0-.572,1.689c0,.182.064.272.188.272.085,0,.182-.1.29-.3s.254-.493.43-.88q.313-.658.66-1.465C492.484,491.553,492.7,491.03,492.913,490.524Zm2.333-.608c-.136.015-.284.036-.448.064a3.086,3.086,0,0,0-.439.094,1.867,1.867,0,0,0-.33.124c-.088.046-.133.1-.133.154s.036.1.109.1a1.419,1.419,0,0,0,.6-.148A3.456,3.456,0,0,0,495.247,489.916Zm-.956-.756c-.051.133-.109.272-.173.415l-.2.466a2.081,2.081,0,0,1,.369-.13c.142-.036.284-.07.43-.1s.294-.055.439-.076l.39-.054a3.954,3.954,0,0,0,.651-.666,1.025,1.025,0,0,0,.257-.515.311.311,0,0,0-.039-.194.194.194,0,0,0-.148-.042c-.021,0-.076,0-.163-.012a1.042,1.042,0,0,0-.369.055,3.386,3.386,0,0,0-.6.26,5.148,5.148,0,0,0-.847.6v-.009Z" transform="translate(-415.758 -414.484)" fill="#fff"/>
  </g>
</svg>
