<svg xmlns="http://www.w3.org/2000/svg" width="686" height="686" viewBox="0 0 686 686">
  <g id="Group_1401" data-name="Group 1401" transform="translate(-960.047 -235.047)">
    <g id="Ellipse_2" data-name="Ellipse 2" transform="translate(960.047 235.047)" fill="none" stroke="#098b46" stroke-width="2" opacity="0.13">
      <circle cx="343" cy="343" r="343" stroke="none"/>
      <circle cx="343" cy="343" r="342" fill="none"/>
    </g>
    <g id="Ellipse_3" data-name="Ellipse 3" transform="translate(1003.047 278.047)" fill="none" stroke="#098b46" stroke-width="2" opacity="0.18">
      <circle cx="300" cy="300" r="300" stroke="none"/>
      <circle cx="300" cy="300" r="299" fill="none"/>
    </g>
    <g id="Ellipse_4" data-name="Ellipse 4" transform="translate(1049.047 324.047)" fill="none" stroke="#098b46" stroke-width="2" opacity="0.23">
      <circle cx="254" cy="254" r="254" stroke="none"/>
      <circle cx="254" cy="254" r="253" fill="none"/>
    </g>
    <g id="Ellipse_5" data-name="Ellipse 5" transform="translate(1098.047 373.047)" fill="none" stroke="#098b46" stroke-width="2" opacity="0.28">
      <circle cx="205" cy="205" r="205" stroke="none"/>
      <circle cx="205" cy="205" r="204" fill="none"/>
    </g>
    <g id="Ellipse_6" data-name="Ellipse 6" transform="translate(1144.047 419.047)" fill="none" stroke="#098b46" stroke-width="2" opacity="0.33">
      <circle cx="159" cy="159" r="159" stroke="none"/>
      <circle cx="159" cy="159" r="158" fill="none"/>
    </g>
    <g id="Ellipse_7" data-name="Ellipse 7" transform="translate(1188.047 463.047)" fill="none" stroke="#098b46" stroke-width="2" opacity="0.13">
      <circle cx="115" cy="115" r="115" stroke="none"/>
      <circle cx="115" cy="115" r="114" fill="none"/>
    </g>
    <g id="Ellipse_8" data-name="Ellipse 8" transform="translate(1228.047 503.047)" fill="none" stroke="#098b46" stroke-width="2" opacity="0.13">
      <circle cx="75" cy="75" r="75" stroke="none"/>
      <circle cx="75" cy="75" r="74" fill="none"/>
    </g>
    <g id="Ellipse_9" data-name="Ellipse 9" transform="translate(1259.047 534.047)" fill="none" stroke="#098b46" stroke-width="2" opacity="0.13">
      <circle cx="44" cy="44" r="44" stroke="none"/>
      <circle cx="44" cy="44" r="43" fill="none"/>
    </g>
  </g>
</svg>
