<svg xmlns="http://www.w3.org/2000/svg" xmlns:xlink="http://www.w3.org/1999/xlink" width="163.509" height="104.185" viewBox="0 0 163.509 104.185">
  <defs>
    <clipPath id="clip-path">
      <rect width="163.509" height="104.185" fill="none"/>
    </clipPath>
  </defs>
  <g id="Group_11" data-name="Group 11" transform="translate(-929.462 4664.185) rotate(180)" opacity="0.02">
    <g id="Repeat_Grid_1" data-name="Repeat Grid 1" transform="translate(-1092.97 4560)" clip-path="url(#clip-path)">
      <g id="Group_10" data-name="Group 10">
        <path id="Path_33" data-name="Path 33" d="M80.97,8.953a2.487,2.487,0,0,1,2.486,2.486V86.06c0,33.826-12.4,58.149-40.9,83.511l-3.3,2.937a2.485,2.485,0,0,1-3.327-.019L10.842,149.627a2.486,2.486,0,0,1-.077-3.6l3.663-3.634c13.807-13.339,26.7-28.692,27.217-48.741H15.966a2.486,2.486,0,0,1-2.486-2.486V11.439a2.486,2.486,0,0,1,2.486-2.486Z" transform="translate(-10.03 -8.953)"/>
        <path id="Path_34" data-name="Path 34" d="M151.836,8.953a2.486,2.486,0,0,1,2.486,2.486V86.06c0,33.826-12.4,58.149-40.9,83.511l-3.3,2.937a2.485,2.485,0,0,1-3.327-.019L81.707,149.627a2.486,2.486,0,0,1-.077-3.6l3.664-3.634c13.805-13.339,26.7-28.692,27.217-48.741H87.074a2.486,2.486,0,0,1-2.486-2.486V11.439a2.486,2.486,0,0,1,2.486-2.486Z" transform="translate(7.186 -8.953)"/>
      </g>
    </g>
  </g>
</svg>
