<svg xmlns="http://www.w3.org/2000/svg" width="29" height="29" viewBox="0 0 29 29">
  <g id="Frame_579516" data-name="Frame 579516" transform="translate(-0.081)">
    <rect id="Rectangle_30" data-name="Rectangle 30" width="29" height="29" rx="14.5" transform="translate(0.08)" fill="#fffcf2"/>
    <g id="Group_1413" data-name="Group 1413" transform="translate(0 0)">
      <path id="Path_214" data-name="Path 214" d="M17.453,11.5c-1.753,0-1.972.008-2.66.039a4.759,4.759,0,0,0-1.567.3,3.3,3.3,0,0,0-1.888,1.888,4.746,4.746,0,0,0-.3,1.567c-.032.688-.039.907-.039,2.66s.008,1.972.039,2.66a4.762,4.762,0,0,0,.3,1.566,3.3,3.3,0,0,0,1.888,1.888,4.763,4.763,0,0,0,1.567.3c.688.032.907.039,2.66.039s1.972-.008,2.66-.039a4.775,4.775,0,0,0,1.566-.3,3.3,3.3,0,0,0,1.888-1.888,4.76,4.76,0,0,0,.3-1.566c.032-.688.039-.907.039-2.66s-.008-1.972-.039-2.66a4.772,4.772,0,0,0-.3-1.567,3.3,3.3,0,0,0-1.888-1.888,4.749,4.749,0,0,0-1.566-.3C19.425,11.506,19.206,11.5,17.453,11.5Z" transform="translate(-2.919 -3.5)" fill="#098b46"/>
      <path id="Path_214-2" data-name="Path 214" d="M18.547,15.482a3.168,3.168,0,1,0,2.24.928A3.168,3.168,0,0,0,18.547,15.482Zm0,5.225A2.057,2.057,0,1,1,20.6,18.65,2.056,2.056,0,0,1,18.547,20.706Zm4.034-5.35a.74.74,0,1,1-.217-.523A.741.741,0,0,1,22.58,15.357Z" transform="translate(-4.298 -3.616)" fill="#fff"/>
    </g>
  </g>
</svg>
