<svg xmlns="http://www.w3.org/2000/svg" xmlns:xlink="http://www.w3.org/1999/xlink" width="110.188" height="217.717" viewBox="0 0 110.188 217.717">
  <defs>
    <clipPath id="clip-path">
      <rect y="102" width="110.188" height="217.717" fill="none"/>
    </clipPath>
  </defs>
  <g id="Scroll_Group_19" data-name="Scroll Group 19" transform="translate(0 -102)" clip-path="url(#clip-path)" style="isolation: isolate">
    <path id="Path_248" data-name="Path 248" d="M130.074,158.848s8.112-.81,2.767,3.646c0,0-33.241,26.717-71.226,13.967,0,0-22.357-6.273-36.6-30.363a29.017,29.017,0,0,0-7.122-10.932S-10.993,99.945,4.639,55.207c0,0,10.88-39.875,55.6-52.834,0,0,34.033-10.525,65.686,12.75,0,0,49.068,34.615,27.7,92.912,0,0,13.851-44.534-15.628-77.728,0,0-36.208-43.724-90.815-16.4,0,0-43.529,21.922-38.382,76.041,0,0,.99,10.6,10.287,29.621,0,0,7.52,13.763,26.712,21.859,0,0,21.963,11.742,43.723,15.988A201.721,201.721,0,0,1,26.2,123.214s-6.331-3.844,3.957-4.858c0,0,37.99-8.7,64.1,14.98C94.265,133.342,115.83,154.8,130.074,158.848Z" transform="matrix(-0.391, -0.921, 0.921, -0.391, -51.738, 327.191)" fill="#088b46" opacity="0.25"/>
  </g>
</svg>
