<svg xmlns="http://www.w3.org/2000/svg" xmlns:xlink="http://www.w3.org/1999/xlink" width="195.526" height="108.229" viewBox="0 0 195.526 108.229">
  <defs>
    <clipPath id="clip-path">
      <rect width="195.526" height="108.229" fill="none"/>
    </clipPath>
  </defs>
  <g id="Scroll_Group_13" data-name="Scroll Group 13" clip-path="url(#clip-path)" style="isolation: isolate">
    <path id="Path_1" data-name="Path 1" d="M160.918,25.425s9.975.973,3.4-4.382c0,0-40.875-32.111-87.581-16.787,0,0-27.49,7.54-45.006,36.493a34.751,34.751,0,0,1-8.758,13.139s-35.52,42.331-16.3,96.1c0,0,13.378,47.925,68.365,63.5,0,0,41.848,12.65,80.77-15.324,0,0,60.336-41.6,34.057-111.669,0,0,17.032,53.524-19.216,93.42,0,0-44.522,52.551-111.67,19.706,0,0-53.524-26.348-47.2-91.392,0,0,1.218-12.737,12.65-35.6,0,0,9.247-16.542,32.845-26.273,0,0,27.007-14.112,53.763-19.216,0,0-40.385,11.432-77.851,41.113,0,0-7.784,4.621,4.865,5.838,0,0,46.713,10.459,78.824-18C116.886,56.079,143.4,30.29,160.918,25.425Z" transform="translate(-0.974 -0.112)" fill="#fff" opacity="0.46"/>
  </g>
</svg>
