<svg xmlns="http://www.w3.org/2000/svg" width="29" height="29" viewBox="0 0 29 29">
  <g id="Frame_579521" data-name="Frame 579521" transform="translate(0.32)">
    <rect id="Rectangle_34" data-name="Rectangle 34" width="29" height="29" rx="14.5" transform="translate(-0.32)" fill="#fffcf2"/>
    <path id="Path_218" data-name="Path 218" d="M22.913,11.5H11.993a.993.993,0,0,0-.993.993V23.413a.993.993,0,0,0,.993.993H22.913a.993.993,0,0,0,.993-.993V12.493a.993.993,0,0,0-.993-.993Zm-7.446,9.431a.5.5,0,1,1-.993,0V16.96a.5.5,0,1,1,.993,0Zm-.5-4.964a.745.745,0,1,1,.526-.218A.745.745,0,0,1,14.971,15.968Zm5.957,4.964a.5.5,0,1,1-.993,0V18.7a1.241,1.241,0,1,0-2.482,0v2.234a.5.5,0,1,1-.993,0V16.96a.5.5,0,0,1,.98-.11A2.234,2.234,0,0,1,20.928,18.7Z" transform="translate(-3.113 -3.613)" fill="#098b46"/>
  </g>
</svg>
