<svg xmlns="http://www.w3.org/2000/svg" width="95.851" height="106" viewBox="0 0 95.851 106">
  <g id="org_logo" data-name="org logo" transform="translate(-0.974 -0.112)">
    <path id="Path_1" data-name="Path 1" d="M79.382,12.521s4.89.477,1.668-2.148c0,0-20.038-15.741-42.934-8.229a41.218,41.218,0,0,0-22.063,17.89,17.036,17.036,0,0,1-4.293,6.441S-5.652,47.226,3.771,73.585c0,0,6.558,23.494,33.514,31.129,0,0,20.515,6.2,39.6-7.512,0,0,29.578-20.395,16.7-54.743,0,0,8.349,26.239-9.42,45.8,0,0-21.826,25.762-54.743,9.66,0,0-26.239-12.916-23.137-44.8,0,0,.6-6.244,6.2-17.452,0,0,4.533-8.109,16.1-12.879,0,0,13.239-6.918,26.356-9.42A122.66,122.66,0,0,0,16.77,33.516s-3.816,2.265,2.385,2.862c0,0,22.9,5.127,38.641-8.826C57.8,27.549,70.8,14.906,79.382,12.521Z" transform="translate(0 0)" fill="#088b46"/>
    <path id="Path_2" data-name="Path 2" d="M166.416,337.317a16.859,16.859,0,0,1-.471,2.071,26.968,26.968,0,0,1-.933,2.7c.249,0,.517.009.8.024a8.646,8.646,0,0,1,.868.1,6.656,6.656,0,0,1,.846.191,2.476,2.476,0,0,1,.692.314c.132.08.175.166.132.252a.211.211,0,0,1-.2.129.207.207,0,0,1-.2-.123.723.723,0,0,0-.252-.175,3.526,3.526,0,0,0-.56-.209,5.919,5.919,0,0,0-.791-.175,6.036,6.036,0,0,0-.945-.071h-.132l-.243.018H164.9q-.462,1.08-1.022,2.105a10.934,10.934,0,0,1-1.231,1.819,6.378,6.378,0,0,1-1.437,1.28,2.968,2.968,0,0,1-1.6.486,2.349,2.349,0,0,1-1.253-.323,1.148,1.148,0,0,1-.548-1.019,2.922,2.922,0,0,1,.394-1.539,4.548,4.548,0,0,1,1.185-1.339,7.568,7.568,0,0,1,1.843-1.034,9.854,9.854,0,0,1,2.373-.609c.206-.477.388-.933.548-1.376s.308-.853.44-1.234.243-.72.329-1.009.154-.511.2-.662a4.763,4.763,0,0,1-.5.462q-.461.392-1.176.932t-1.591,1.148q-.877.609-1.791,1.123a14.194,14.194,0,0,1-1.77.852,4.166,4.166,0,0,1-1.514.339,3.149,3.149,0,0,1-1.142-.182,1.923,1.923,0,0,1-.736-.486,1.8,1.8,0,0,1-.394-.7,2.74,2.74,0,0,1-.12-.809,5.625,5.625,0,0,1,.406-2.028,9.281,9.281,0,0,1,1.132-2.062,12.285,12.285,0,0,1,1.7-1.9,13.315,13.315,0,0,1,2.1-1.576,11.2,11.2,0,0,1,2.36-1.08,7.979,7.979,0,0,1,2.471-.4,2.729,2.729,0,0,1,1.394.3,2.125,2.125,0,0,1,.736.686,2.057,2.057,0,0,1,.3.748,3.832,3.832,0,0,1,.055.5,3.218,3.218,0,0,1-.1.619,5.368,5.368,0,0,1-.274.852,3.466,3.466,0,0,1-.428.757.723.723,0,0,1-.582.329.389.389,0,0,1-.372-.2c-.074-.132,0-.259.219-.375a1.919,1.919,0,0,0,.68-.757,2.779,2.779,0,0,0,.372-1.243,1.39,1.39,0,0,0-.1-.619,1.78,1.78,0,0,0-.342-.548,1.739,1.739,0,0,0-.548-.4,1.662,1.662,0,0,0-.726-.157,6.17,6.17,0,0,0-1.988.366,11.165,11.165,0,0,0-2.108.991,13.651,13.651,0,0,0-2.01,1.48,12.733,12.733,0,0,0-1.7,1.819,9.227,9.227,0,0,0-1.176,2.01,5.323,5.323,0,0,0-.44,2.071,1.963,1.963,0,0,0,.329,1.139.926.926,0,0,0,.748.48,4.2,4.2,0,0,0,1.483-.329,14.338,14.338,0,0,0,1.757-.843c.606-.342,1.216-.726,1.822-1.148s1.16-.843,1.659-1.262a15.423,15.423,0,0,0,1.262-1.166,3.323,3.323,0,0,0,.649-.852.193.193,0,0,1,.175-.071,1.5,1.5,0,0,1,.856.175C166.358,337.009,166.447,337.154,166.416,337.317Zm-2.942,5.186a8.316,8.316,0,0,0-2.228.7,7.022,7.022,0,0,0-1.6,1.053,4.132,4.132,0,0,0-.966,1.228,2.714,2.714,0,0,0-.317,1.2.95.95,0,0,0,.286.723,1.053,1.053,0,0,0,.748.271,1.751,1.751,0,0,0,1.1-.443,5.961,5.961,0,0,0,1.077-1.176,13.048,13.048,0,0,0,1.009-1.662Q163.054,343.459,163.474,342.5Z" transform="translate(-129.916 -280.676)" fill="#088b46"/>
    <path id="Path_3" data-name="Path 3" d="M235.761,385a1.07,1.07,0,0,1-.726-.228.651.651,0,0,1-.219-.609,1.446,1.446,0,0,1,.166-.539,2.31,2.31,0,0,1,.351-.5,1.906,1.906,0,0,1,.471-.375,1.067,1.067,0,0,1,.526-.148.536.536,0,0,1,.351.1c.043-.092.175-.138.394-.138a.672.672,0,0,1,.726.852.312.312,0,0,1-.022.123.808.808,0,0,0-.043.123,1.206,1.206,0,0,0,.68.175,2.965,2.965,0,0,0,.911-.123,3.3,3.3,0,0,0,.671-.286,2.365,2.365,0,0,0,.462-.338q.175-.175.286-.277a.11.11,0,0,1,.175,0,.122.122,0,0,1,.021.175c-.031.034-.1.114-.209.234a2.16,2.16,0,0,1-.483.375,4.007,4.007,0,0,1-.769.348,3.32,3.32,0,0,1-1.086.157,2.449,2.449,0,0,1-.812-.139,2.2,2.2,0,0,1-.726.733A2.03,2.03,0,0,1,235.761,385Zm1.36-1.32a1.451,1.451,0,0,1-.363-.4,1.028,1.028,0,0,1-.141-.348,2.051,2.051,0,0,0-.6.5,2.359,2.359,0,0,0-.372.591.774.774,0,0,0-.065.5.259.259,0,0,0,.274.209,1.563,1.563,0,0,0,1.271-1.043Zm.132-.557c.015-.1.006-.157-.021-.157S237.226,383.022,237.254,383.127Z" transform="translate(-198.03 -323.893)" fill="#088b46"/>
    <path id="Path_4" data-name="Path 4" d="M285.62,337.317a16.865,16.865,0,0,1-.471,2.071,26.2,26.2,0,0,1-.933,2.7c.249,0,.517.009.8.024s.575.049.868.1a6.656,6.656,0,0,1,.846.191,2.476,2.476,0,0,1,.692.314c.132.08.175.166.132.252a.217.217,0,0,1-.394.006.724.724,0,0,0-.252-.175,3.527,3.527,0,0,0-.56-.209,5.919,5.919,0,0,0-.791-.175,6.036,6.036,0,0,0-.945-.071h-.132l-.243.018h-.132q-.462,1.08-1.022,2.105a10.933,10.933,0,0,1-1.231,1.819,6.379,6.379,0,0,1-1.437,1.28,2.968,2.968,0,0,1-1.6.486,2.349,2.349,0,0,1-1.253-.323,1.148,1.148,0,0,1-.548-1.019,2.922,2.922,0,0,1,.394-1.539,4.548,4.548,0,0,1,1.185-1.339,7.569,7.569,0,0,1,1.843-1.034,9.854,9.854,0,0,1,2.373-.609c.206-.477.388-.933.548-1.376s.308-.853.44-1.234.243-.72.329-1.009.154-.511.2-.662a4.781,4.781,0,0,1-.5.462q-.461.392-1.176.932t-1.591,1.148q-.877.609-1.791,1.123a14.2,14.2,0,0,1-1.77.852,4.166,4.166,0,0,1-1.514.339,3.148,3.148,0,0,1-1.142-.182,1.923,1.923,0,0,1-.736-.486,1.8,1.8,0,0,1-.394-.7,2.74,2.74,0,0,1-.12-.809,5.625,5.625,0,0,1,.406-2.028,9.282,9.282,0,0,1,1.132-2.062,12.286,12.286,0,0,1,1.7-1.9,13.315,13.315,0,0,1,2.1-1.576,11.2,11.2,0,0,1,2.36-1.08,7.979,7.979,0,0,1,2.471-.4,2.729,2.729,0,0,1,1.394.3,2.126,2.126,0,0,1,.736.686,2.057,2.057,0,0,1,.3.748,3.831,3.831,0,0,1,.055.5,3.219,3.219,0,0,1-.1.619,5.387,5.387,0,0,1-.274.852,3.466,3.466,0,0,1-.428.757.723.723,0,0,1-.582.329.389.389,0,0,1-.372-.2c-.074-.132,0-.259.219-.375a1.919,1.919,0,0,0,.68-.757,2.779,2.779,0,0,0,.372-1.243,1.39,1.39,0,0,0-.1-.619,1.78,1.78,0,0,0-.342-.548,1.739,1.739,0,0,0-.548-.4,1.662,1.662,0,0,0-.726-.157,6.17,6.17,0,0,0-1.988.366,11.165,11.165,0,0,0-2.108.991,13.65,13.65,0,0,0-2.01,1.48,12.733,12.733,0,0,0-1.7,1.819,9.226,9.226,0,0,0-1.176,2.01,5.323,5.323,0,0,0-.44,2.071,1.964,1.964,0,0,0,.329,1.139.926.926,0,0,0,.748.48,4.2,4.2,0,0,0,1.483-.329,14.338,14.338,0,0,0,1.757-.843c.606-.342,1.216-.726,1.822-1.148s1.16-.843,1.659-1.262a15.423,15.423,0,0,0,1.262-1.166,3.324,3.324,0,0,0,.649-.852.193.193,0,0,1,.175-.071,1.5,1.5,0,0,1,.856.175C285.562,337.009,285.648,337.154,285.62,337.317Zm-2.945,5.186a8.316,8.316,0,0,0-2.228.7,7.022,7.022,0,0,0-1.6,1.053,4.129,4.129,0,0,0-.966,1.228,2.714,2.714,0,0,0-.317,1.2.95.95,0,0,0,.286.723,1.053,1.053,0,0,0,.748.271,1.75,1.75,0,0,0,1.1-.443,5.956,5.956,0,0,0,1.077-1.176,13.047,13.047,0,0,0,1.009-1.662C282.1,343.77,282.4,343.139,282.675,342.5Z" transform="translate(-230.867 -280.676)" fill="#088b46"/>
    <path id="Path_5" data-name="Path 5" d="M362.207,379.789c-.031.025-.111.1-.243.219s-.292.262-.483.419-.406.326-.649.5-.483.348-.726.5a4.994,4.994,0,0,1-.7.382,1.549,1.549,0,0,1-.6.148,1.16,1.16,0,0,1-.573-.123.419.419,0,0,1-.219-.4,1.078,1.078,0,0,1,.111-.462,4.513,4.513,0,0,1,.243-.452c.089-.145.172-.277.252-.391a.894.894,0,0,0,.141-.262c0-.025-.074-.031-.219-.025s-.329.009-.548.009c-.425,0-.637-.169-.637-.5a.88.88,0,0,1,.175-.486.548.548,0,0,1,.483-.262.951.951,0,0,1,.351.071c.117.046.175.117.175.209a.518.518,0,0,1-.154.357q-.152.166-.286.3l.769-.019a.84.84,0,0,1,.526.123.258.258,0,0,1,.111.366,1.988,1.988,0,0,1-.132.277q-.088.157-.175.3c-.059.1-.114.188-.166.271s-.092.138-.12.175a.911.911,0,0,0-.166.461.163.163,0,0,0,.188.166,1.493,1.493,0,0,0,.7-.262,9.892,9.892,0,0,0,.9-.609c.308-.231.594-.462.855-.686s.452-.391.573-.5c.028-.034.092-.028.188.018S362.266,379.73,362.207,379.789Z" transform="translate(-301.81 -320.539)" fill="#088b46"/>
    <path id="Path_6" data-name="Path 6" d="M385.106,383.213a1.154,1.154,0,0,0-.022.243.818.818,0,0,0,.043.262.429.429,0,0,0,.166.209.572.572,0,0,0,.342.086,2.248,2.248,0,0,0,.757-.157,5.471,5.471,0,0,0,.855-.4,6.366,6.366,0,0,0,.813-.548,5.458,5.458,0,0,0,.649-.6.147.147,0,0,1,.2-.025c.074.04.089.089.043.148a2.58,2.58,0,0,1-.342.348,6.966,6.966,0,0,1-.791.618,7.137,7.137,0,0,1-1.056.591,2.747,2.747,0,0,1-1.154.271,1.684,1.684,0,0,1-.979-.252.778.778,0,0,1-.363-.671,1.279,1.279,0,0,1,.166-.618,1.875,1.875,0,0,1,.428-.529,2.166,2.166,0,0,1,.6-.366,1.879,1.879,0,0,1,.714-.138,1.133,1.133,0,0,1,.56.129.465.465,0,0,1,.231.443.61.61,0,0,1-.111.329,1.213,1.213,0,0,1-.308.323,1.922,1.922,0,0,1-.483.252,1.885,1.885,0,0,1-.659.1.727.727,0,0,1-.166-.018C385.2,383.237,385.152,383.225,385.106,383.213Zm.068-.172a.436.436,0,0,0,.154.019,1.141,1.141,0,0,0,.406-.077,1.51,1.51,0,0,0,.394-.219,1.127,1.127,0,0,0,.3-.323.716.716,0,0,0,.111-.375c0-.058-.037-.086-.111-.086a1.184,1.184,0,0,0-.548.172,1.693,1.693,0,0,0-.363.314A2.024,2.024,0,0,0,385.174,383.04Z" transform="translate(-324.601 -323.144)" fill="#088b46"/>
    <path id="Path_7" data-name="Path 7" d="M411.5,383.213a1.155,1.155,0,0,0-.021.243.817.817,0,0,0,.043.262.43.43,0,0,0,.166.209.572.572,0,0,0,.342.086,2.249,2.249,0,0,0,.757-.157,5.472,5.472,0,0,0,.855-.4,6.366,6.366,0,0,0,.812-.548,5.472,5.472,0,0,0,.649-.6.147.147,0,0,1,.2-.025c.074.04.089.089.043.148a2.569,2.569,0,0,1-.342.348,6.955,6.955,0,0,1-.791.618,7.13,7.13,0,0,1-1.056.591,2.746,2.746,0,0,1-1.154.271,1.684,1.684,0,0,1-.979-.252.777.777,0,0,1-.363-.671,1.278,1.278,0,0,1,.166-.618,1.87,1.87,0,0,1,.428-.529,2.164,2.164,0,0,1,.6-.366,1.878,1.878,0,0,1,.714-.138,1.133,1.133,0,0,1,.56.129.465.465,0,0,1,.231.443.609.609,0,0,1-.111.329,1.212,1.212,0,0,1-.308.323,1.926,1.926,0,0,1-.483.252,1.885,1.885,0,0,1-.659.1.725.725,0,0,1-.166-.018C411.588,383.237,411.542,383.225,411.5,383.213Zm.068-.172a.435.435,0,0,0,.154.019,1.141,1.141,0,0,0,.406-.077,1.507,1.507,0,0,0,.394-.219,1.131,1.131,0,0,0,.3-.323.717.717,0,0,0,.111-.375c0-.058-.037-.086-.111-.086a1.185,1.185,0,0,0-.548.172,1.693,1.693,0,0,0-.363.314A2.024,2.024,0,0,0,411.564,383.04Z" transform="translate(-346.951 -323.144)" fill="#088b46"/>
    <path id="Path_8" data-name="Path 8" d="M438.455,380.735a2.736,2.736,0,0,0-.308.409,4.991,4.991,0,0,0-.317.557c-.1.191-.175.369-.243.529a1.127,1.127,0,0,0-.1.348c.175-.117.425-.3.748-.566s.665-.526,1.031-.8.72-.514,1.065-.723a1.758,1.758,0,0,1,.846-.314q.065,0,.175.009a.95.95,0,0,1,.231.052.437.437,0,0,1,.188.123.213.213,0,0,1,.021.219,1.475,1.475,0,0,1-.188.4c-.111.185-.231.382-.363.591s-.249.412-.351.609a3.042,3.042,0,0,0-.2.434,1.08,1.08,0,0,0-.055.3c-.006.117.04.175.142.175a1.463,1.463,0,0,0,.7-.314,10.811,10.811,0,0,0,.923-.7c.308-.262.582-.5.825-.723a3.036,3.036,0,0,0,.385-.382c.043-.058.111-.058.2,0s.111.1.065.139a7.861,7.861,0,0,1-.572.582c-.265.249-.548.5-.856.748a8.872,8.872,0,0,1-.911.652,1.547,1.547,0,0,1-.757.277,1.161,1.161,0,0,1-.671-.175.46.46,0,0,1-.231-.434,1.953,1.953,0,0,1,.209-.733c.123-.255.252-.492.385-.714a5.792,5.792,0,0,1,.363-.548A.973.973,0,0,0,441,380.5a1.615,1.615,0,0,0-.68.277c-.277.175-.578.382-.9.628s-.64.489-.954.738-.6.462-.846.634a.642.642,0,0,1-.329.1.707.707,0,0,1-.449-.166.421.421,0,0,1-.188-.375,1.676,1.676,0,0,1,.188-.539,6.077,6.077,0,0,1,.372-.643,4.037,4.037,0,0,1,.418-.539c.139-.151.246-.228.317-.228a.633.633,0,0,1,.44.123C438.476,380.606,438.5,380.677,438.455,380.735Z" transform="translate(-368.967 -321.867)" fill="#088b46"/>
    <path id="Path_9" data-name="Path 9" d="M108.891,449.523a1.307,1.307,0,0,0,.009.169c.006.046.019.071.04.071a.045.045,0,0,1,.031.043c0,.022-.028.031-.08.031a.449.449,0,0,1-.145-.065q-.111-.064-.111-.277a.963.963,0,0,1,.1-.341,1.37,1.37,0,0,1,.36-.462,2.284,2.284,0,0,1,.726-.409,3.42,3.42,0,0,1,1.194-.175c.351,0,.708.009,1.068.031s.726.049,1.1.083l.16-.317a.315.315,0,0,1,.225-.077.664.664,0,0,1,.32.077c.1.049.126.1.1.151a.436.436,0,0,0-.031.065.4.4,0,0,0-.031.071.75.75,0,0,1-.049.108l1.991.2a11.781,11.781,0,0,0,1.85.043c.277-.015.551-.043.828-.077a4.95,4.95,0,0,0,.742-.145,1.75,1.75,0,0,0,.532-.24.415.415,0,0,0,.206-.348c0-.043-.009-.071-.031-.083s-.043-.028-.065-.043a.058.058,0,0,1-.025-.065c.006-.025.028-.031.071-.012a.811.811,0,0,1,.16.083.253.253,0,0,1,.111.234.7.7,0,0,1-.086.246.969.969,0,0,1-.366.341,3.211,3.211,0,0,1-.788.311,5.968,5.968,0,0,1-1.354.163,18.226,18.226,0,0,1-1.871-.049q-1.043-.074-2.08-.163c-.139.3-.32.689-.551,1.182s-.477,1.019-.742,1.579-.532,1.126-.806,1.7-.514,1.1-.733,1.567-.4.859-.551,1.163-.228.468-.24.492c-.031.068-.123.1-.271.1a.678.678,0,0,1-.24-.043c-.074-.031-.108-.071-.1-.12a7.3,7.3,0,0,1,.262-.7c.141-.345.323-.754.542-1.225l.708-1.526q.383-.822.757-1.616t.708-1.483c.222-.458.4-.834.542-1.129-.68-.059-1.286-.1-1.816-.114a6.866,6.866,0,0,0-.7.043,3.579,3.579,0,0,0-.748.163,1.863,1.863,0,0,0-.591.317A.583.583,0,0,0,108.891,449.523Z" transform="translate(-91.176 -378.896)" fill="#088b46"/>
    <path id="Path_10" data-name="Path 10" d="M135.083,489.31a.97.97,0,0,0-.015.175.567.567,0,0,0,.031.191.315.315,0,0,0,.12.151.411.411,0,0,0,.246.065,1.613,1.613,0,0,0,.551-.114,4.161,4.161,0,0,0,.622-.289,4.714,4.714,0,0,0,.591-.4,3.875,3.875,0,0,0,.471-.437.109.109,0,0,1,.145-.018c.052.031.065.065.031.108a1.6,1.6,0,0,1-.246.252,4.911,4.911,0,0,1-.572.449,5.3,5.3,0,0,1-.766.431,2,2,0,0,1-.837.2,1.23,1.23,0,0,1-.708-.182.564.564,0,0,1-.262-.486.938.938,0,0,1,.12-.449,1.347,1.347,0,0,1,.311-.385,1.563,1.563,0,0,1,.437-.265,1.347,1.347,0,0,1,.517-.1.794.794,0,0,1,.406.1.341.341,0,0,1,.166.323.456.456,0,0,1-.08.24.842.842,0,0,1-.225.234,1.332,1.332,0,0,1-.351.182,1.42,1.42,0,0,1-.477.077.491.491,0,0,1-.12-.012A.823.823,0,0,0,135.083,489.31Zm.049-.126a.321.321,0,0,0,.111.012.863.863,0,0,0,.3-.055,1.083,1.083,0,0,0,.286-.157.813.813,0,0,0,.215-.234.529.529,0,0,0,.08-.271c0-.043-.028-.065-.08-.065a.975.975,0,0,0-.16.024.86.86,0,0,0-.24.1,1.07,1.07,0,0,0-.262.228A1.528,1.528,0,0,0,135.132,489.184Z" transform="translate(-113.066 -413.355)" fill="#088b46"/>
    <path id="Path_11" data-name="Path 11" d="M155.916,488.636a.174.174,0,0,1-.175.126c-.1,0-.145-.034-.145-.1a.1.1,0,0,1,.04-.089.212.212,0,0,0,.071-.114c.031-.126-.031-.191-.191-.191a.707.707,0,0,0-.517.234,1.371,1.371,0,0,0-.326.517.807.807,0,0,0-.015.523c.052.16.2.24.431.24a1.371,1.371,0,0,0,.526-.12,3.281,3.281,0,0,0,.572-.311,5.518,5.518,0,0,0,.557-.422,4.624,4.624,0,0,0,.462-.449.085.085,0,0,1,.126-.018c.052.031.068.065.049.108a1.82,1.82,0,0,1-.231.265,5.191,5.191,0,0,1-.551.492,4.455,4.455,0,0,1-.773.48,2.116,2.116,0,0,1-.932.215,1.034,1.034,0,0,1-.591-.145.658.658,0,0,1-.271-.36.833.833,0,0,1,.009-.474,1.355,1.355,0,0,1,.24-.474,1.462,1.462,0,0,1,.422-.36,1.122,1.122,0,0,1,.557-.145.74.74,0,0,1,.557.169A.392.392,0,0,1,155.916,488.636Z" transform="translate(-129.596 -413.236)" fill="#088b46"/>
    <path id="Path_12" data-name="Path 12" d="M173.294,455.583a.422.422,0,0,1-.335-.1.261.261,0,0,1-.049-.228,12.619,12.619,0,0,1,.677-1.831,15.663,15.663,0,0,1,.963-1.788,16.322,16.322,0,0,1,1.154-1.622,10.8,10.8,0,0,1,1.253-1.32,6.16,6.16,0,0,1,1.268-.883,2.607,2.607,0,0,1,1.188-.323,1.135,1.135,0,0,1,.766.234.73.73,0,0,1,.271.575,2.308,2.308,0,0,1-.286,1.068,5.241,5.241,0,0,1-.772,1.086,9.294,9.294,0,0,1-1.114,1.034,16.107,16.107,0,0,1-1.314.935,15.531,15.531,0,0,1-1.379.782c-.462.231-.9.422-1.3.576a6.164,6.164,0,0,0-.3.677c-.086.225-.169.443-.255.662.169-.135.366-.292.591-.474s.449-.351.677-.511a5.91,5.91,0,0,1,.652-.4,1.145,1.145,0,0,1,.517-.163c.031,0,.074,0,.126.006a.632.632,0,0,1,.16.037.472.472,0,0,1,.145.089.2.2,0,0,1,.065.157,1.154,1.154,0,0,1-.16.486c-.108.206-.219.409-.335.606s-.209.369-.28.511-.071.215-.009.215a1.078,1.078,0,0,0,.511-.228,7.565,7.565,0,0,0,.668-.511c.225-.191.422-.363.6-.523a2.371,2.371,0,0,0,.28-.277c.031-.043.08-.043.145,0s.08.077.049.1a5.572,5.572,0,0,1-.415.422c-.191.182-.4.363-.622.542a6.169,6.169,0,0,1-.662.474,1.106,1.106,0,0,1-.551.2c-.425,0-.637-.117-.637-.354a.911.911,0,0,1,.126-.391c.086-.16.175-.323.271-.492s.185-.329.271-.48a.789.789,0,0,0,.126-.354,1.172,1.172,0,0,0-.5.209c-.206.129-.428.286-.662.468s-.465.369-.692.563-.428.354-.6.48a.141.141,0,0,1-.12.055C173.4,455.583,173.346,455.583,173.294,455.583Zm6.358-7.7a2.311,2.311,0,0,0-1.274.486,8.026,8.026,0,0,0-1.409,1.28,14.983,14.983,0,0,0-1.37,1.807,20.161,20.161,0,0,0-1.188,2.071,16.231,16.231,0,0,0,2.04-1.068,14.045,14.045,0,0,0,1.834-1.327A7.658,7.658,0,0,0,179.6,449.7a2.434,2.434,0,0,0,.5-1.369c0-.194-.046-.317-.135-.372A.626.626,0,0,0,179.652,447.88Z" transform="translate(-145.602 -378.871)" fill="#088b46"/>
    <path id="Path_13" data-name="Path 13" d="M204.2,487.485a2.259,2.259,0,0,0-.225.3,3.5,3.5,0,0,0-.231.4c-.068.138-.126.268-.175.385a.755.755,0,0,0-.071.252c.126-.083.308-.222.542-.409s.483-.382.748-.582.523-.372.772-.523a1.292,1.292,0,0,1,.612-.228c.031,0,.074,0,.126.006a.7.7,0,0,1,.166.037.289.289,0,0,1,.135.089.159.159,0,0,1,.015.157.989.989,0,0,1-.135.289c-.08.135-.166.277-.262.431s-.182.3-.255.443a2.5,2.5,0,0,0-.145.317.794.794,0,0,0-.04.215c-.006.083.028.126.1.126a1.08,1.08,0,0,0,.511-.228,8.045,8.045,0,0,0,.668-.511c.222-.191.422-.363.6-.523a2.371,2.371,0,0,0,.28-.277c.031-.043.08-.043.145,0s.08.077.049.1a4.975,4.975,0,0,1-.415.422c-.191.182-.4.363-.622.542a6.488,6.488,0,0,1-.662.474,1.107,1.107,0,0,1-.551.2.85.85,0,0,1-.486-.126.33.33,0,0,1-.166-.317,1.4,1.4,0,0,1,.151-.529c.089-.185.185-.357.28-.517s.185-.292.262-.4a.756.756,0,0,0,.12-.182,1.2,1.2,0,0,0-.5.2c-.2.126-.419.277-.652.455s-.465.357-.692.535-.434.335-.612.462a.5.5,0,0,1-.24.077.516.516,0,0,1-.326-.12.3.3,0,0,1-.135-.271,1.177,1.177,0,0,1,.135-.391,4.176,4.176,0,0,1,.271-.468,3.4,3.4,0,0,1,.3-.391c.1-.111.179-.163.231-.163a.474.474,0,0,1,.32.089C204.221,487.393,204.236,487.442,204.2,487.485Z" transform="translate(-170.998 -412.402)" fill="#088b46"/>
    <path id="Path_14" data-name="Path 14" d="M233.566,490.595a.8.8,0,0,1-.526-.163.479.479,0,0,1-.16-.443,1,1,0,0,1,.12-.391,1.59,1.59,0,0,1,.255-.366,1.367,1.367,0,0,1,.342-.271.781.781,0,0,1,.382-.108.4.4,0,0,1,.255.077q.046-.1.286-.1a.487.487,0,0,1,.526.619.259.259,0,0,1-.015.089.94.94,0,0,0-.031.089.89.89,0,0,0,.5.126,2.22,2.22,0,0,0,.662-.089,2.457,2.457,0,0,0,.486-.209,1.716,1.716,0,0,0,.335-.246c.086-.083.154-.151.206-.2a.078.078,0,0,1,.126,0,.085.085,0,0,1,.015.126c-.022.025-.071.083-.151.169a1.522,1.522,0,0,1-.351.271,3.163,3.163,0,0,1-.557.252,2.381,2.381,0,0,1-.788.114,1.764,1.764,0,0,1-.591-.1,1.568,1.568,0,0,1-.526.529A1.4,1.4,0,0,1,233.566,490.595Zm.988-.957a1.026,1.026,0,0,1-.262-.289.826.826,0,0,1-.1-.252,1.456,1.456,0,0,0-.437.36,1.682,1.682,0,0,0-.271.431.579.579,0,0,0-.049.36.186.186,0,0,0,.2.151,1.166,1.166,0,0,0,.422-.145A1.2,1.2,0,0,0,234.554,489.637Zm.1-.406c.009-.077.006-.114-.015-.114S234.628,489.157,234.649,489.231Z" transform="translate(-196.392 -413.883)" fill="#088b46"/>
    <path id="Path_15" data-name="Path 15" d="M260.807,452.974a3.708,3.708,0,0,0-.222,1.123.92.92,0,0,0,.145.575.553.553,0,0,0,.5.234,2.943,2.943,0,0,0,.877-.157,7.126,7.126,0,0,0,1-.409,8.774,8.774,0,0,0,.979-.576,6.348,6.348,0,0,0,.828-.662.1.1,0,0,1,.151,0c.059.043.068.083.025.126a8.3,8.3,0,0,1-.868.7,9.162,9.162,0,0,1-1.012.619,6.7,6.7,0,0,1-1.053.449,3.2,3.2,0,0,1-.988.169,2.943,2.943,0,0,1-.406-.031,1.4,1.4,0,0,1-.446-.145,1.087,1.087,0,0,1-.375-.329.94.94,0,0,1-.16-.569,3.838,3.838,0,0,1,.326-1.508,9.4,9.4,0,0,1,.923-1.7,15.1,15.1,0,0,1,1.33-1.693,12.978,12.978,0,0,1,1.554-1.465,8.69,8.69,0,0,1,1.609-1.028,3.394,3.394,0,0,1,1.474-.391,1.258,1.258,0,0,1,.742.2.661.661,0,0,1,.28.575,2.124,2.124,0,0,1-.566,1.243,9.632,9.632,0,0,1-1.545,1.5,24.085,24.085,0,0,1-2.3,1.6C262.727,451.955,261.795,452.479,260.807,452.974Zm.111-.314q1.45-.743,2.687-1.514a21.082,21.082,0,0,0,2.142-1.508,9.072,9.072,0,0,0,1.425-1.4,2.012,2.012,0,0,0,.517-1.169.48.48,0,0,0-.1-.311.346.346,0,0,0-.286-.12,2.013,2.013,0,0,0-.862.228,7.58,7.58,0,0,0-1.139.668,14.08,14.08,0,0,0-1.268,1.009,15.05,15.05,0,0,0-1.253,1.256,13.6,13.6,0,0,0-1.093,1.409A8.046,8.046,0,0,0,260.918,452.66Z" transform="translate(-219.171 -377.866)" fill="#088b46"/>
    <path id="Path_16" data-name="Path 16" d="M291.429,490.595a.8.8,0,0,1-.526-.163.479.479,0,0,1-.16-.443,1,1,0,0,1,.12-.391,1.6,1.6,0,0,1,.255-.366,1.367,1.367,0,0,1,.342-.271.781.781,0,0,1,.382-.108.4.4,0,0,1,.255.077q.046-.1.286-.1a.487.487,0,0,1,.526.619.259.259,0,0,1-.015.089c-.009.025-.022.055-.031.089a.89.89,0,0,0,.5.126,2.219,2.219,0,0,0,.662-.089,2.453,2.453,0,0,0,.486-.209,1.718,1.718,0,0,0,.335-.246c.086-.083.154-.151.206-.2a.078.078,0,0,1,.126,0,.085.085,0,0,1,.015.126c-.021.025-.071.083-.151.169a1.522,1.522,0,0,1-.351.271,3.163,3.163,0,0,1-.557.252,2.381,2.381,0,0,1-.788.114,1.765,1.765,0,0,1-.591-.1,1.568,1.568,0,0,1-.526.529A1.392,1.392,0,0,1,291.429,490.595Zm.988-.957a1.024,1.024,0,0,1-.262-.289.827.827,0,0,1-.1-.252,1.457,1.457,0,0,0-.437.36,1.681,1.681,0,0,0-.271.431.578.578,0,0,0-.049.36.186.186,0,0,0,.2.151,1.168,1.168,0,0,0,.422-.145A1.2,1.2,0,0,0,292.417,489.637Zm.1-.406c.009-.077.006-.114-.015-.114S292.491,489.157,292.512,489.231Z" transform="translate(-245.395 -413.883)" fill="#088b46"/>
    <path id="Path_17" data-name="Path 17" d="M304.076,492.8a1.628,1.628,0,0,1,.225-.683,2.446,2.446,0,0,1,.612-.662,7.01,7.01,0,0,1,1.108-.689q.683-.355,1.69-.757c.031-.185.059-.369.08-.557a4.912,4.912,0,0,0,.031-.569c-.086.1-.185.209-.3.329a2.57,2.57,0,0,1-.375.323,2.066,2.066,0,0,1-.437.234,1.232,1.232,0,0,1-.486.077.778.778,0,0,1-.477-.169.416.416,0,0,1-.126-.385,1.057,1.057,0,0,1,.2-.5,1.694,1.694,0,0,1,.416-.409,2.092,2.092,0,0,1,.542-.277,1.668,1.668,0,0,1,.6-.089,1,1,0,0,1,.336.077.7.7,0,0,1,.225.151.434.434,0,0,1,.206-.049.441.441,0,0,1,.246.071.149.149,0,0,1,.071.12,4.337,4.337,0,0,1,.025.594,6.24,6.24,0,0,1-.071.745c.2-.1.409-.215.622-.348s.409-.262.591-.4.345-.262.5-.385a2.985,2.985,0,0,0,.335-.311.1.1,0,0,1,.166-.006c.059.055.068.1.025.132a8,8,0,0,1-1,.84,6.587,6.587,0,0,1-1.268.726,8.923,8.923,0,0,1-.342,1.332,4.885,4.885,0,0,1-.622,1.249,3.122,3.122,0,0,1-.942.9,2.2,2.2,0,0,1-1.3.3,1.326,1.326,0,0,1-.837-.289A.779.779,0,0,1,304.076,492.8Zm.366.012a.572.572,0,0,0,.151.48.715.715,0,0,0,.455.215,1.457,1.457,0,0,0,.862-.234,2.865,2.865,0,0,0,.757-.708,4.816,4.816,0,0,0,.6-1.049,6.988,6.988,0,0,0,.4-1.268c-.585.243-1.077.471-1.483.683a5.584,5.584,0,0,0-.979.625,2.347,2.347,0,0,0-.551.612A1.611,1.611,0,0,0,304.442,492.814Zm3.379-4.268a.1.1,0,0,0-.009-.043.04.04,0,0,1,.009-.043.379.379,0,0,0-.1-.12.305.305,0,0,0-.16-.071.921.921,0,0,0-.422.1,2.123,2.123,0,0,0-.471.283,2.156,2.156,0,0,0-.382.385.763.763,0,0,0-.175.409.42.42,0,0,0,.025.132.132.132,0,0,0,.12.083,1.2,1.2,0,0,0,.757-.3A3.894,3.894,0,0,0,307.821,488.546Z" transform="translate(-256.687 -413.197)" fill="#088b46"/>
    <path id="Path_18" data-name="Path 18" d="M343.577,484.915a2.882,2.882,0,0,0-.231.329,3.51,3.51,0,0,0-.255.486,1.027,1.027,0,0,0-.1.431c.006.123.086.179.246.169a1.168,1.168,0,0,0,.517-.191,3.935,3.935,0,0,0,.557-.4c.176-.151.329-.3.462-.431s.215-.219.246-.252a.131.131,0,0,1,.16-.019c.052.031.065.065.031.108q-.129.124-.351.36a5.093,5.093,0,0,1-.5.456,3.916,3.916,0,0,1-.582.391,1.562,1.562,0,0,1-.612.2,1.12,1.12,0,0,1-.551-.083.432.432,0,0,1-.262-.409,1.219,1.219,0,0,1,.086-.4,2.926,2.926,0,0,1,.215-.456,2.619,2.619,0,0,1,.262-.379q.134-.157.231-.157a.441.441,0,0,1,.335.083C343.6,484.816,343.62,484.872,343.577,484.915Zm-.222-.631c0-.16.1-.24.3-.24s.3.08.3.24-.1.24-.3.24S343.355,484.444,343.355,484.284Z" transform="translate(-289.113 -409.831)" fill="#088b46"/>
    <path id="Path_19" data-name="Path 19" d="M357.814,489.31a.981.981,0,0,0-.015.175.567.567,0,0,0,.031.191.315.315,0,0,0,.12.151.411.411,0,0,0,.246.065,1.613,1.613,0,0,0,.551-.114,4.317,4.317,0,0,0,.622-.289,4.723,4.723,0,0,0,.591-.4,3.874,3.874,0,0,0,.471-.437.109.109,0,0,1,.145-.018c.052.031.065.065.031.108a1.6,1.6,0,0,1-.246.252,4.911,4.911,0,0,1-.572.449,5.3,5.3,0,0,1-.766.431,2,2,0,0,1-.837.2,1.23,1.23,0,0,1-.708-.182.564.564,0,0,1-.262-.486.938.938,0,0,1,.12-.449,1.347,1.347,0,0,1,.311-.385,1.563,1.563,0,0,1,.437-.265,1.347,1.347,0,0,1,.517-.1.794.794,0,0,1,.406.1.341.341,0,0,1,.166.323.455.455,0,0,1-.08.24.842.842,0,0,1-.225.234,1.333,1.333,0,0,1-.351.182,1.42,1.42,0,0,1-.477.077.491.491,0,0,1-.12-.012C357.879,489.328,357.845,489.319,357.814,489.31Zm.046-.126a.321.321,0,0,0,.111.012.863.863,0,0,0,.3-.055,1.083,1.083,0,0,0,.286-.157.812.812,0,0,0,.215-.234.529.529,0,0,0,.08-.271c0-.043-.028-.065-.08-.065a.975.975,0,0,0-.16.024.86.86,0,0,0-.24.1,1.07,1.07,0,0,0-.262.228A1.528,1.528,0,0,0,357.86,489.184Z" transform="translate(-301.692 -413.355)" fill="#088b46"/>
    <path id="Path_20" data-name="Path 20" d="M375.67,486.85c-.086-.175-.191-.369-.32-.582a1.264,1.264,0,0,1-.206-.529.407.407,0,0,1,.191-.4.913.913,0,0,1,.477-.126.6.6,0,0,1,.391.1.357.357,0,0,1,.135.24c0,.009,0,.034-.009.077a.362.362,0,0,1-.055.138.58.58,0,0,1-.151.151.893.893,0,0,1-.3.126,2.94,2.94,0,0,0,.206.366,2.318,2.318,0,0,1,.191.342,2.98,2.98,0,0,0,.973-.336c.222-.139.4-.255.526-.348a.1.1,0,0,1,.151.006c.049.046.046.089-.009.132a4.608,4.608,0,0,1-.542.348,3.645,3.645,0,0,1-1.037.348,1.174,1.174,0,0,1,.049.342.558.558,0,0,1-.071.335.8.8,0,0,1-.24.246,1.142,1.142,0,0,1-.336.151,1.4,1.4,0,0,1-.375.049q-.734,0-.7-.48a.441.441,0,0,1,.04-.182.507.507,0,0,1,.151-.185,1.214,1.214,0,0,1,.32-.169A3.338,3.338,0,0,1,375.67,486.85Zm.08.163a1.669,1.669,0,0,0-.692.271.3.3,0,0,0-.12.283.253.253,0,0,0,.3.24.7.7,0,0,0,.326-.175.592.592,0,0,0,.2-.48A.532.532,0,0,0,375.75,487.013Zm.015-1.136c.225-.083.335-.185.335-.3,0-.1-.058-.151-.175-.151a.313.313,0,0,0-.166.055q-.088.055-.055.222a.274.274,0,0,1,.04.1A.236.236,0,0,0,375.766,485.878Z" transform="translate(-316.424 -410.819)" fill="#088b46"/>
    <path id="Path_21" data-name="Path 21" d="M424.547,447.281a.185.185,0,0,0-.126-.012.679.679,0,0,0-.126.055.883.883,0,0,0-.231.182,1.188,1.188,0,0,0-.215.342,1.324,1.324,0,0,0-.1.542.957.957,0,0,0,.086.317,1.043,1.043,0,0,0,.342.416,11.2,11.2,0,0,1,1.123-1.176,8.906,8.906,0,0,1,1.289-.972,6.822,6.822,0,0,1,1.394-.656,4.445,4.445,0,0,1,1.419-.24,2.069,2.069,0,0,1,1.037.222.76.76,0,0,1,.382.714,1.483,1.483,0,0,1-.416.942,4.236,4.236,0,0,1-1.114.889,7.27,7.27,0,0,1-3.539.92,3.769,3.769,0,0,1-.972-.114,7.436,7.436,0,0,0-.923,1.508,3.652,3.652,0,0,0-.351,1.508,1.847,1.847,0,0,0,.646,1.508,2.576,2.576,0,0,0,1.7.536,3.534,3.534,0,0,0,.766-.1,4.351,4.351,0,0,0,.9-.317,5.184,5.184,0,0,0,.957-.6,5.089,5.089,0,0,0,.917-.948.125.125,0,0,1,.166-.025c.068.034.083.077.04.126-.021.025-.12.148-.3.366a4.432,4.432,0,0,1-.757.708,5.891,5.891,0,0,1-1.194.69,3.92,3.92,0,0,1-1.594.311,4.447,4.447,0,0,1-1.274-.169,3.03,3.03,0,0,1-.979-.48,2.177,2.177,0,0,1-.631-.751,2.144,2.144,0,0,1-.225-.972,3.945,3.945,0,0,1,.366-1.56,8.094,8.094,0,0,1,.988-1.662,1.255,1.255,0,0,1-.637-1.111,1.077,1.077,0,0,1,.1-.48,1.643,1.643,0,0,1,.246-.379,1.028,1.028,0,0,1,.32-.252.731.731,0,0,1,.32-.089c.169,0,.255.058.255.175a.093.093,0,0,1-.025.071C424.571,447.288,424.559,447.291,424.547,447.281Zm.415,2.185c.1.018.215.031.326.043a3.422,3.422,0,0,0,.375.019,6.893,6.893,0,0,0,1.754-.228,6.546,6.546,0,0,0,1.53-.6,4.129,4.129,0,0,0,1.083-.84,1.412,1.412,0,0,0,.415-.936.369.369,0,0,0-.215-.36.882.882,0,0,0-.375-.108,3.037,3.037,0,0,0-1.139.222,7.29,7.29,0,0,0-1.289.643,10.446,10.446,0,0,0-1.3.96A10.325,10.325,0,0,0,424.962,449.466Z" transform="translate(-357.111 -377.679)" fill="#088b46"/>
    <path id="Path_22" data-name="Path 22" d="M463.773,490.595a.791.791,0,0,1-.526-.163.479.479,0,0,1-.16-.443,1,1,0,0,1,.12-.391,1.6,1.6,0,0,1,.255-.366,1.37,1.37,0,0,1,.342-.271.782.782,0,0,1,.382-.108.4.4,0,0,1,.255.077q.046-.1.286-.1a.487.487,0,0,1,.526.619.255.255,0,0,1-.015.089c-.009.025-.021.055-.031.089a.89.89,0,0,0,.5.126,2.219,2.219,0,0,0,.662-.089,2.457,2.457,0,0,0,.486-.209,1.722,1.722,0,0,0,.335-.246c.086-.083.154-.151.206-.2a.078.078,0,0,1,.126,0,.085.085,0,0,1,.015.126c-.022.025-.071.083-.151.169a1.525,1.525,0,0,1-.351.271,3.162,3.162,0,0,1-.557.252,2.382,2.382,0,0,1-.788.114,1.764,1.764,0,0,1-.591-.1,1.57,1.57,0,0,1-.526.529A1.392,1.392,0,0,1,463.773,490.595Zm.988-.957a1.021,1.021,0,0,1-.262-.289.832.832,0,0,1-.1-.252,1.459,1.459,0,0,0-.437.36,1.676,1.676,0,0,0-.271.431.578.578,0,0,0-.049.36.186.186,0,0,0,.2.151,1.167,1.167,0,0,0,.422-.145A1.2,1.2,0,0,0,464.761,489.637Zm.1-.406c.009-.077.006-.114-.015-.114S464.835,489.157,464.857,489.231Z" transform="translate(-391.349 -413.883)" fill="#088b46"/>
    <path id="Path_23" data-name="Path 23" d="M493.807,486.758l-.175.157c-.1.086-.212.191-.351.3s-.3.237-.471.366-.351.252-.526.366a3.353,3.353,0,0,1-.511.277,1.143,1.143,0,0,1-.437.108.868.868,0,0,1-.415-.089.3.3,0,0,1-.16-.289.8.8,0,0,1,.08-.335,3.374,3.374,0,0,1,.175-.329c.065-.1.126-.2.185-.283a.717.717,0,0,0,.1-.191c0-.015-.052-.025-.16-.019s-.24.006-.4.006c-.308,0-.462-.123-.462-.366a.653.653,0,0,1,.126-.354.405.405,0,0,1,.351-.191.752.752,0,0,1,.255.049c.086.034.126.083.126.151a.376.376,0,0,1-.111.258c-.074.08-.145.154-.206.222l.557-.012a.617.617,0,0,1,.382.089.188.188,0,0,1,.08.265,1.412,1.412,0,0,1-.1.2c-.043.077-.086.151-.126.222l-.12.2c-.037.059-.068.1-.086.126a.638.638,0,0,0-.12.335.118.118,0,0,0,.135.12,1.111,1.111,0,0,0,.511-.191,6.825,6.825,0,0,0,.652-.443c.225-.169.431-.335.622-.5s.329-.283.416-.36c.021-.025.068-.022.135.012S493.85,486.718,493.807,486.758Z" transform="translate(-414.388 -411.397)" fill="#088b46"/>
    <path id="Path_24" data-name="Path 24" d="M494.707,488.332a.91.91,0,0,1-.055.138c-.037.083-.086.2-.151.354a5.33,5.33,0,0,1,.957-.557,2.147,2.147,0,0,1,.862-.2,1.015,1.015,0,0,1,.557.132.382.382,0,0,1,.191.372,1.374,1.374,0,0,1-.111.468,1.845,1.845,0,0,1-.255.415,5.379,5.379,0,0,0,.828-.329,4.892,4.892,0,0,0,.591-.342c.16-.111.28-.2.366-.277s.132-.117.145-.126a.124.124,0,0,1,.151,0c.059.034.068.071.025.114a2.981,2.981,0,0,1-1.068.769,9.226,9.226,0,0,1-1.289.468,3.719,3.719,0,0,1-.557.409,4.574,4.574,0,0,1-.612.311,4.359,4.359,0,0,1-.6.2,2.2,2.2,0,0,1-.511.071.7.7,0,0,1-.415-.089c-.117.277-.24.56-.366.846s-.249.563-.366.828-.228.514-.335.745-.2.431-.271.6a4.044,4.044,0,0,1-.726,1.111,1.083,1.083,0,0,1-.772.354.428.428,0,0,1-.382-.163.685.685,0,0,1-.111-.391,2.652,2.652,0,0,1,.231-.979,8.781,8.781,0,0,1,.612-1.188,13.148,13.148,0,0,1,.893-1.268,15.086,15.086,0,0,1,1.068-1.213c.1-.243.185-.468.271-.677s.16-.385.225-.535c.074-.175.138-.335.191-.48a.193.193,0,0,1,.16-.139,1.681,1.681,0,0,1,.206-.012.58.58,0,0,1,.366.083A.166.166,0,0,1,494.707,488.332Zm-1.751,2.234a12.5,12.5,0,0,0-1.68,2.287,3.963,3.963,0,0,0-.582,1.717c0,.185.065.277.191.277.086,0,.185-.1.3-.3s.258-.5.437-.9q.319-.67.671-1.49C492.519,491.612,492.743,491.08,492.956,490.566Zm2.373-.619c-.138.015-.289.037-.456.065a3.141,3.141,0,0,0-.446.1,1.9,1.9,0,0,0-.336.126c-.089.046-.135.1-.135.157s.037.1.111.1a1.443,1.443,0,0,0,.612-.151A3.517,3.517,0,0,0,495.328,489.947Zm-.972-.769c-.052.135-.111.277-.175.422l-.206.474a2.117,2.117,0,0,1,.375-.132c.145-.037.289-.071.437-.1s.3-.055.446-.077l.4-.055a4.021,4.021,0,0,0,.662-.677,1.041,1.041,0,0,0,.262-.523.317.317,0,0,0-.04-.2.2.2,0,0,0-.151-.043c-.022,0-.077,0-.166-.012a1.061,1.061,0,0,0-.375.055,3.446,3.446,0,0,0-.606.265,5.232,5.232,0,0,0-.862.612v-.009Z" transform="translate(-414.506 -413.236)" fill="#088b46"/>
  </g>
</svg>
