<svg xmlns="http://www.w3.org/2000/svg" width="49.947" height="46.72" viewBox="0 0 49.947 46.72">
  <path id="Path_245" data-name="Path 245" d="M31.207,37.659,30.126,37.5l-.481-.978a1.081,1.081,0,0,0-1.9,0l-.481.978-1.081.157a1.081,1.081,0,0,0-.584,1.805l.784.762L26.2,41.307a1.081,1.081,0,0,0,1.535,1.113l.967-.508.967.508a1.081,1.081,0,0,0,1.535-1.113l-.184-1.081.784-.762a1.081,1.081,0,0,0-.6-1.805Zm-1.249,1.708a1.081,1.081,0,0,0-.3.935l.1.6-.595-.276a1.081,1.081,0,0,0-.984,0l-.557.276.114-.643a1.081,1.081,0,0,0-.3-.935l-.465-.454.643-.092A1.081,1.081,0,0,0,28.4,38.2l.292-.54.286.54a1.081,1.081,0,0,0,.795.578l.643.092ZM22.186,24.082l-1.081-.157-.481-.978h0a1.049,1.049,0,0,0-.946-.589h0a1.049,1.049,0,0,0-.946.589l-.481.978-1.081.157a1.081,1.081,0,0,0-.584,1.805l.784.762-.184,1.081a1.081,1.081,0,0,0,1.535,1.113l.967-.508.967.508a1.081,1.081,0,0,0,1.535-1.113l-.184-1.081.784-.762a1.081,1.081,0,0,0-.605-1.805Zm-1.249,1.686a1.081,1.081,0,0,0-.3.935l.108.686-.578-.3a1.081,1.081,0,0,0-.984,0l-.578.3.114-.643a1.081,1.081,0,0,0-.308-.978l-.465-.454.649-.092a1.081,1.081,0,0,0,.795-.535l.286-.584.3.584a1.081,1.081,0,0,0,.784.54l.643.092ZM49.832,8.662h-8V6.176a.676.676,0,0,0-1.351,0V8.662H16.041V6.176a.676.676,0,1,0-1.351,0V8.662H7.074A3.6,3.6,0,0,0,3.48,12.256v36.37A3.6,3.6,0,0,0,7.074,52.22H49.832a3.6,3.6,0,0,0,3.594-3.594V12.256a3.6,3.6,0,0,0-3.594-3.594ZM7.069,10.013H14.69v4.464a.676.676,0,1,0,1.351,0V10.013H40.482v4.464a.676.676,0,1,0,1.351,0V10.013h8a2.243,2.243,0,0,1,2.243,2.243v7.026H4.842V12.256a2.243,2.243,0,0,1,2.232-2.243ZM49.832,50.869H7.074a2.243,2.243,0,0,1-2.232-2.243V20.645H52.076V48.626A2.243,2.243,0,0,1,49.832,50.869ZM13.382,45.891a.676.676,0,0,1-.676.676H8.993a.676.676,0,1,1,0-1.351h3.719A.676.676,0,0,1,13.382,45.891Zm9.021,0a.676.676,0,0,1-.676.676H18.008a.676.676,0,1,1,0-1.351h3.719a.676.676,0,0,1,.676.676Zm8.648,0a.676.676,0,0,1-.676.676H26.64a.676.676,0,1,1,0-1.351h3.713a.676.676,0,0,1,.676.676Zm9.021,0a.676.676,0,0,1-.676.676H35.65a.676.676,0,0,1,0-1.34h3.719a.676.676,0,0,1,.681.665Zm8.648,0a.676.676,0,0,1-.676.676H44.3a.676.676,0,0,1,0-1.34h3.719a.676.676,0,0,1,.659.665ZM13.382,39.367a.676.676,0,0,1-.676.676H8.993a.676.676,0,0,1,0-1.351h3.719A.676.676,0,0,1,13.382,39.367Zm9.021,0a.676.676,0,0,1-.676.676H18.008a.676.676,0,0,1,0-1.351h3.719a.676.676,0,0,1,.676.676Zm17.647,0a.676.676,0,0,1-.676.676H35.65a.676.676,0,0,1,0-1.351h3.719a.676.676,0,0,1,.681.676Zm8.648,0a.676.676,0,0,1-.676.676H44.3a.676.676,0,0,1,0-1.351h3.719a.676.676,0,0,1,.659.676ZM13.382,32.838a.676.676,0,0,1-.676.676H8.993a.676.676,0,0,1,0-1.351h3.719A.676.676,0,0,1,13.382,32.838Zm9.021,0a.676.676,0,0,1-.676.676H18.008a.676.676,0,0,1,0-1.351h3.719a.676.676,0,0,1,.676.676Zm3.562,0a.676.676,0,0,1,.676-.676h3.713a.676.676,0,1,1,0,1.351H26.64a.676.676,0,0,1-.676-.676Zm14.085,0a.676.676,0,0,1-.676.676H35.65a.676.676,0,0,1,0-1.351h3.719a.676.676,0,0,1,.681.676Zm8.648,0a.676.676,0,0,1-.676.676H44.3a.676.676,0,0,1,0-1.351h3.719a.676.676,0,0,1,.659.676ZM13.382,26.309a.676.676,0,0,1-.676.676H8.993a.676.676,0,1,1,0-1.351h3.719A.676.676,0,0,1,13.382,26.309Zm12.577,0a.676.676,0,0,1,.676-.676h3.719a.676.676,0,1,1,0,1.351H26.64a.676.676,0,0,1-.676-.676Zm14.085,0a.676.676,0,0,1-.676.676H35.65a.676.676,0,1,1,0-1.351h3.719a.676.676,0,0,1,.681.676Zm8.648,0a.676.676,0,0,1-.676.676H44.3a.676.676,0,1,1,0-1.351h3.719a.676.676,0,0,1,.659.676Z" transform="translate(-3.48 -5.5)" fill="#098b46"/>
</svg>
