<svg xmlns="http://www.w3.org/2000/svg" width="46.72" height="46.72" viewBox="0 0 46.72 46.72">
  <path id="route-solid-svgrepo-com" d="M7.893,4a3.893,3.893,0,1,0,3.893,3.893A3.921,3.921,0,0,0,7.893,4ZM15.68,5.947a1.947,1.947,0,1,0,1.947,1.947A1.95,1.95,0,0,0,15.68,5.947Zm5.84,0a1.947,1.947,0,1,0,1.947,1.947A1.95,1.95,0,0,0,21.52,5.947Zm5.84,0a1.947,1.947,0,1,0,1.947,1.947A1.95,1.95,0,0,0,27.36,5.947Zm5.84,0a1.947,1.947,0,1,0,1.947,1.947A1.95,1.95,0,0,0,33.2,5.947Zm5.84,0a1.947,1.947,0,1,0,1.947,1.947A1.95,1.95,0,0,0,39.04,5.947Zm5.84,0a1.947,1.947,0,1,0,1.947,1.947A1.95,1.95,0,0,0,44.88,5.947ZM48.773,9.84a1.947,1.947,0,1,0,1.947,1.947A1.95,1.95,0,0,0,48.773,9.84ZM27.36,15.68a5.851,5.851,0,0,0-5.84,5.84c0,2.433,3.141,8.745,4.106,10.623l1.734,3.369,1.734-3.369c.966-1.878,4.106-8.19,4.106-10.623A5.851,5.851,0,0,0,27.36,15.68Zm21.413,0a1.947,1.947,0,1,0,1.947,1.947A1.95,1.95,0,0,0,48.773,15.68ZM27.36,19.573a1.947,1.947,0,1,1-1.947,1.947A1.95,1.95,0,0,1,27.36,19.573ZM48.773,21.52a1.947,1.947,0,1,0,1.947,1.947A1.95,1.95,0,0,0,48.773,21.52Zm0,5.84a1.947,1.947,0,1,0,1.947,1.947A1.95,1.95,0,0,0,48.773,27.36ZM9.84,31.253A1.947,1.947,0,1,0,11.787,33.2,1.95,1.95,0,0,0,9.84,31.253Zm5.84,0A1.947,1.947,0,1,0,17.627,33.2,1.95,1.95,0,0,0,15.68,31.253Zm5.84,0A1.947,1.947,0,1,0,23.467,33.2,1.95,1.95,0,0,0,21.52,31.253Zm11.68,0A1.947,1.947,0,1,0,35.147,33.2,1.95,1.95,0,0,0,33.2,31.253Zm5.84,0A1.947,1.947,0,1,0,40.987,33.2,1.95,1.95,0,0,0,39.04,31.253Zm5.84,0A1.947,1.947,0,1,0,46.827,33.2,1.95,1.95,0,0,0,44.88,31.253ZM5.947,35.147a1.947,1.947,0,1,0,1.947,1.947A1.95,1.95,0,0,0,5.947,35.147Zm0,5.84a1.947,1.947,0,1,0,1.947,1.947A1.95,1.95,0,0,0,5.947,40.987Zm40.88,1.947a3.893,3.893,0,1,0,3.893,3.893A3.921,3.921,0,0,0,46.827,42.933ZM9.84,44.88a1.947,1.947,0,1,0,1.947,1.947A1.95,1.95,0,0,0,9.84,44.88Zm5.84,0a1.947,1.947,0,1,0,1.947,1.947A1.95,1.95,0,0,0,15.68,44.88Zm5.84,0a1.947,1.947,0,1,0,1.947,1.947A1.95,1.95,0,0,0,21.52,44.88Zm5.84,0a1.947,1.947,0,1,0,1.947,1.947A1.95,1.95,0,0,0,27.36,44.88Zm5.84,0a1.947,1.947,0,1,0,1.947,1.947A1.95,1.95,0,0,0,33.2,44.88Zm5.84,0a1.947,1.947,0,1,0,1.947,1.947A1.95,1.95,0,0,0,39.04,44.88Z" transform="translate(-4 -4)" fill="#098b46"/>
</svg>
