<svg id="pd" xmlns="http://www.w3.org/2000/svg" width="46.72" height="46.72" viewBox="0 0 46.72 46.72">
  <path id="Path_238" data-name="Path 238" d="M19.492,11.949a3.477,3.477,0,0,0-2.066-.588H12.52V9.158h4.826a5.681,5.681,0,0,1,3.418.99,5.239,5.239,0,0,1,2.12,4.523,4.688,4.688,0,0,1-2.2,4.353,6.159,6.159,0,0,1-3.341.719H11.877a6.8,6.8,0,0,0-3.738,1.482A6,6,0,0,0,5.9,26.138a6.092,6.092,0,0,0,2.244,4.948,7.982,7.982,0,0,0,3.782,1.668H27.957v2.205H11.79l-.068-.008A10.159,10.159,0,0,1,6.747,32.79,8.293,8.293,0,0,1,3.7,26.138a8.2,8.2,0,0,1,3.058-6.632,8.982,8.982,0,0,1,5.067-1.968h5.6a4,4,0,0,0,2.144-.418,2.514,2.514,0,0,0,1.109-2.45A3.054,3.054,0,0,0,19.492,11.949Z" transform="translate(4.777 11.76)" fill="#098b46" fill-rule="evenodd"/>
  <path id="Path_239" data-name="Path 239" d="M28.682,20.423c0,4.631-7.5,9.924-7.5,9.924s-7.5-5.072-7.5-9.924c0-3.9,2.524-7.939,7.5-7.939S28.682,16.526,28.682,20.423Z" transform="translate(18.038 16.373)" fill="#098b46"/>
  <path id="Path_240" data-name="Path 240" d="M20.289,10.977c0,6.4-10.144,13.722-10.144,13.722S0,17.686,0,10.977C0,5.588,3.415,0,10.144,0S20.289,5.588,20.289,10.977Z" fill="#098b46"/>
  <path id="Path_241" data-name="Path 241" d="M13.758,7.9A5.954,5.954,0,1,1,7.8,1.942,5.954,5.954,0,0,1,13.758,7.9ZM7.8,11.2A3.308,3.308,0,1,0,4.5,7.9,3.308,3.308,0,0,0,7.8,11.2Z" transform="translate(2.561 2.689)" fill="#fff" fill-rule="evenodd"/>
</svg>
