<svg xmlns="http://www.w3.org/2000/svg" width="13" height="11" viewBox="0 0 13 11">
  <g id="Polygon_4" data-name="Polygon 4" fill="#fff">
    <path d="M 9.608700752258301 10.10952758789062 C 9.564210891723633 10.10952758789062 9.520350456237793 10.09648704528809 9.478350639343262 10.07077693939209 L 6.89163064956665 8.486977577209473 C 6.773700714111328 8.414767265319824 6.638280391693115 8.376606941223145 6.500000476837158 8.376606941223145 C 6.361720561981201 8.376606941223145 6.226300239562988 8.414767265319824 6.108370304107666 8.486977577209473 L 3.521650552749634 10.07077693939209 C 3.479660511016846 10.09648704528809 3.435790538787842 10.10952758789062 3.39128041267395 10.10952758789062 C 3.312570571899414 10.10952758789062 3.233620405197144 10.06781768798828 3.185240507125854 10.00067710876465 C 3.152370452880859 9.955047607421875 3.120250463485718 9.879446983337402 3.153960466384888 9.778437614440918 L 3.988220453262329 7.278347015380859 C 4.093870639801025 6.961747169494629 3.97506046295166 6.609307289123535 3.699280500411987 6.421277046203613 L 1.427920460700989 4.872627258300781 C 1.288150429725647 4.777327060699463 1.316900491714478 4.636107444763184 1.32904052734375 4.595097064971924 C 1.341180443763733 4.554087162017822 1.393940448760986 4.419977188110352 1.56307053565979 4.416137218475342 L 4.549620628356934 4.348206996917725 C 4.851300239562988 4.341337203979492 5.118200302124023 4.155697345733643 5.22959041595459 3.875267267227173 L 6.267660617828369 1.262057185173035 C 6.325790405273438 1.115737199783325 6.460190296173096 1.104367256164551 6.500000476837158 1.104367256164551 C 6.539810657501221 1.104367256164551 6.674210548400879 1.115737199783325 6.732340335845947 1.262067198753357 L 7.770410537719727 3.875267267227173 C 7.881800651550293 4.155697345733643 8.148700714111328 4.341337203979492 8.450370788574219 4.348206996917725 L 11.43694019317627 4.416137218475342 C 11.60606002807617 4.419977188110352 11.65882015228271 4.554087162017822 11.67096042633057 4.595097064971924 C 11.68310070037842 4.636107444763184 11.7118501663208 4.777327060699463 11.57207012176514 4.872627258300781 L 9.30072021484375 6.421277046203613 C 9.024940490722656 6.609307289123535 8.906130790710449 6.961747169494629 9.01179027557373 7.278357028961182 L 9.846040725708008 9.778437614440918 C 9.879740715026855 9.879426956176758 9.847630500793457 9.95501708984375 9.814750671386719 10.00064754486084 C 9.76637077331543 10.06779766082764 9.687420845031738 10.10951709747314 9.608700752258301 10.10952758789062 Z" stroke="none"/>
    <path d="M 6.500000476837158 1.35435676574707 L 5.461930274963379 3.967557430267334 C 5.31341028213501 4.341467380523682 4.957540512084961 4.588977336883545 4.555310249328613 4.598137378692627 L 1.568754196166992 4.666067123413086 C 1.568754196166992 4.666072368621826 1.568757057189941 4.666074752807617 1.568760871887207 4.666077136993408 L 3.840120315551758 6.214727401733398 C 4.207820892333984 6.465427398681641 4.366230010986328 6.935347080230713 4.225360870361328 7.357487201690674 L 3.391100883483887 9.857566833496094 L 5.977810382843018 8.273777008056641 C 6.135040283203125 8.177496910095215 6.315610408782959 8.126606941223145 6.500000476837158 8.126606941223145 C 6.684390544891357 8.126606941223145 6.864960670471191 8.177496910095215 7.022180557250977 8.273767471313477 L 9.60889720916748 9.857568740844727 C 9.60889720916748 9.857568740844727 9.608898162841797 9.857568740844727 9.60890007019043 9.857577323913574 L 8.774641036987305 7.357487201690674 C 8.633769989013672 6.935337066650391 8.792190551757812 6.465417385101318 9.159880638122559 6.214727401733398 L 11.43124008178711 4.666077136993408 C 11.43124389648438 4.666075229644775 11.43124771118164 4.666074275970459 11.43124580383301 4.666067123413086 C 11.43124389648438 4.666067123413086 11.43124198913574 4.666067123413086 11.43124008178711 4.666067123413086 L 8.444681167602539 4.598137378692627 C 8.042460441589355 4.588977336883545 7.686590671539307 4.341467380523682 7.538070678710938 3.967567443847656 L 6.500000476837158 1.35435676574707 M 6.500000476837158 0.8543624877929688 C 6.69057559967041 0.8543624877929688 6.881150245666504 0.9594974517822266 6.964680671691895 1.169767379760742 L 8.002750396728516 3.782977104187012 C 8.076860427856445 3.969547271728516 8.25536060333252 4.093697071075439 8.456060409545898 4.098267078399658 L 11.44261074066162 4.166197299957275 C 11.92867088317871 4.177257061004639 12.11461067199707 4.805297374725342 11.71291065216064 5.079187393188477 L 9.441550254821777 6.627837181091309 C 9.256800651550293 6.753797054290771 9.178150177001953 6.987117290496826 9.248929977416992 7.199217319488525 L 10.08319091796875 9.699307441711426 C 10.23085021972656 10.14182662963867 9.745671272277832 10.527587890625 9.347810745239258 10.28398704528809 L 6.761090278625488 8.700187683105469 C 6.600851058959961 8.602077484130859 6.399149894714355 8.602077484130859 6.238910675048828 8.700187683105469 L 3.652190208435059 10.28398704528809 C 3.254336357116699 10.52758598327637 2.769140243530273 10.1418285369873 2.916810035705566 9.699307441711426 L 3.751070022583008 7.199217319488525 C 3.821850776672363 6.987117290496826 3.743190765380859 6.753797054290771 3.558450698852539 6.627837181091309 L 1.287090301513672 5.079187393188477 C 0.8853902816772461 4.805297374725342 1.071320533752441 4.177257061004639 1.557380676269531 4.166197299957275 L 4.543940544128418 4.098267078399658 C 4.744640350341797 4.093697071075439 4.923140525817871 3.969547271728516 4.997250556945801 3.782977104187012 L 6.035320281982422 1.169767379760742 C 6.118850708007812 0.9594974517822266 6.309425354003906 0.8543624877929688 6.500000476837158 0.8543624877929688 Z" stroke="none" fill="#098b46"/>
  </g>
</svg>
