<svg xmlns="http://www.w3.org/2000/svg" width="12" height="11" viewBox="0 0 12 11">
  <g id="Polygon_2" data-name="Polygon 2" fill="#098b46">
    <path d="M 8.817440032958984 10.06179809570312 C 8.770079612731934 10.06180763244629 8.723910331726074 10.04711818695068 8.680219650268555 10.01813793182373 L 6.414569854736328 8.515308380126953 C 6.291289806365967 8.433547973632812 6.147930145263672 8.390328407287598 6 8.390328407287598 C 5.852069854736328 8.390328407287598 5.708710193634033 8.433547973632812 5.585430145263672 8.515308380126953 L 3.319780111312866 10.01812839508057 C 3.276099920272827 10.0471076965332 3.229919910430908 10.06179809570312 3.182529926300049 10.06179809570312 C 3.104439973831177 10.06179809570312 3.025759935379028 10.0209379196167 2.977200031280518 9.955167770385742 C 2.944370031356812 9.910708427429199 2.911730051040649 9.836627960205078 2.942660093307495 9.736207962036133 L 3.707520008087158 7.253087997436523 C 3.80115008354187 6.949158191680908 3.692169904708862 6.617998123168945 3.436350107192993 6.429038047790527 L 1.321120023727417 4.866658210754395 C 1.187860012054443 4.768218040466309 1.218649983406067 4.630248069763184 1.231259942054749 4.59030818939209 C 1.243860006332397 4.550357818603516 1.297880053520203 4.419727802276611 1.463500022888184 4.415637969970703 L 4.166140079498291 4.34902811050415 C 4.475969791412354 4.341407775878906 4.745110034942627 4.148458003997803 4.851809978485107 3.857457876205444 L 5.765279769897461 1.366297960281372 C 5.821060180664062 1.214177966117859 5.95904016494751 1.20235800743103 6 1.20235800743103 C 6.04095983505249 1.20235800743103 6.178939819335938 1.214177966117859 6.234720230102539 1.366297960281372 L 7.148190021514893 3.857467889785767 C 7.254889965057373 4.148458003997803 7.524030208587646 4.341407775878906 7.833869934082031 4.34902811050415 L 10.53649997711182 4.415627956390381 C 10.70211982727051 4.419717788696289 10.75613021850586 4.550357818603516 10.76873970031738 4.590298175811768 C 10.78135013580322 4.630238056182861 10.81214046478271 4.768218040466309 10.67887020111084 4.866658210754395 L 8.563650131225586 6.429038047790527 C 8.307829856872559 6.617998123168945 8.198849678039551 6.949158191680908 8.29248046875 7.253098011016846 L 9.057339668273926 9.736207962036133 C 9.088259696960449 9.83659839630127 9.055620193481445 9.91065788269043 9.022800445556641 9.955118179321289 C 8.97422981262207 10.02091789245605 8.895540237426758 10.06178760528564 8.817440032958984 10.06179809570312 Z" stroke="none"/>
    <path d="M 6 1.452358245849609 L 5.086530208587646 3.943528175354004 C 4.944270133972168 4.331518173217773 4.585400104522705 4.588788032531738 4.172299861907959 4.598958015441895 L 1.469659805297852 4.665567874908447 C 1.469659805297852 4.665567874908447 1.469659805297852 4.665567874908447 1.469659805297852 4.665567874908447 L 3.584890365600586 6.227948188781738 C 3.925979614257812 6.479887962341309 4.071280002593994 6.921438217163086 3.946439743041992 7.326687812805176 L 3.18157958984375 9.809798240661621 C 3.18157958984375 9.80980110168457 3.181578636169434 9.809803009033203 3.181577682495117 9.809805870056152 C 3.181581497192383 9.809803009033203 3.181585311889648 9.80980110168457 3.18159008026123 9.809798240661621 L 5.447249889373779 8.306978225708008 C 5.61161994934082 8.197948455810547 5.802760124206543 8.140317916870117 6 8.140317916870117 C 6.197239875793457 8.140317916870117 6.38838005065918 8.197948455810547 6.552760124206543 8.306978225708008 L 8.818400382995605 9.809791564941406 C 8.818405151367188 9.809787750244141 8.81840991973877 9.809783935546875 8.81842041015625 9.809798240661621 L 8.053560256958008 7.326687812805176 C 7.928719997406006 6.921438217163086 8.074020385742188 6.479887962341309 8.415109634399414 6.227948188781738 L 10.53034019470215 4.665567874908447 C 10.5303430557251 4.665565967559814 10.53034496307373 4.665565013885498 10.5303430557251 4.665557861328125 C 10.53034210205078 4.665557861328125 10.53034114837646 4.665557861328125 10.53034019470215 4.665557861328125 L 7.827720165252686 4.598958015441895 C 7.414599895477295 4.588788032531738 7.055729866027832 4.331518173217773 6.913469791412354 3.943528175354004 L 6 1.452358245849609 M 6 0.9523582458496094 C 6.194644927978516 0.9523582458496094 6.389289855957031 1.061648368835449 6.46943998336792 1.280227661132812 L 7.382909774780273 3.771398067474365 C 7.453569889068604 3.964107990264893 7.634829998016357 4.094058036804199 7.840020179748535 4.099108219146729 L 10.54265975952148 4.165708065032959 C 11.01865005493164 4.177437782287598 11.21039009094238 4.784857749938965 10.8274097442627 5.067748069763184 L 8.712180137634277 6.630127906799316 C 8.541379928588867 6.756288051605225 8.468890190124512 6.976568222045898 8.531399726867676 7.179498195648193 L 9.296259880065918 9.66260814666748 C 9.434539794921875 10.11153793334961 8.933489799499512 10.48612785339355 8.542030334472656 10.22646808624268 L 6.276380062103271 8.723648071289062 C 6.108879566192627 8.612547874450684 5.891120433807373 8.612547874450684 5.723619937896729 8.723648071289062 L 3.457969665527344 10.22646808624268 C 3.066512107849121 10.48612880706787 2.565460205078125 10.11153793334961 2.703740119934082 9.66260814666748 L 3.468600273132324 7.179498195648193 C 3.531109809875488 6.976568222045898 3.458620071411133 6.756288051605225 3.287819862365723 6.630127906799316 L 1.172590255737305 5.067748069763184 C 0.7896099090576172 4.784857749938965 0.9813499450683594 4.177437782287598 1.457340240478516 4.165718078613281 L 4.159979820251465 4.099108219146729 C 4.365170001983643 4.094058036804199 4.546430110931396 3.964107990264893 4.617090225219727 3.771398067474365 L 5.53056001663208 1.280227661132812 C 5.610710144042969 1.061648368835449 5.805355072021484 0.9523582458496094 6 0.9523582458496094 Z" stroke="none" fill="#098b46"/>
  </g>
</svg>
