<svg xmlns="http://www.w3.org/2000/svg" xmlns:xlink="http://www.w3.org/1999/xlink" width="193.187" height="433.716" viewBox="0 0 193.187 433.716">
  <defs>
    <clipPath id="clip-path">
      <rect width="193.187" height="433.716" fill="none"/>
    </clipPath>
  </defs>
  <g id="Scroll_Group_6" data-name="Scroll Group 6" clip-path="url(#clip-path)" style="isolation: isolate">
    <path id="Path_222" data-name="Path 222" d="M218,35.252s13.535,1.351,4.617-6.083c0,0-55.463-44.577-118.838-23.3,0,0-37.3,10.467-61.068,50.66,0,0-3.629,10.806-11.883,18.24,0,0-48.2,58.765-22.113,133.408,0,0,18.152,66.53,92.764,88.152,0,0,56.783,17.561,109.6-21.273,0,0,81.869-57.754,46.212-155.021,0,0,23.11,74.3-26.074,129.687,0,0-60.412,72.953-151.524,27.356,0,0-72.627-36.577-64.04-126.873,0,0,1.653-17.682,17.164-49.422,0,0,12.548-22.964,44.568-36.472,0,0,36.645-19.591,72.951-26.676,0,0-54.8,15.87-105.635,57.074,0,0-10.563,6.414,6.6,8.105,0,0,63.385,14.519,106.956-24.994C158.254,77.807,194.235,42.006,218,35.252Z" transform="matrix(0.391, -0.921, 0.921, 0.391, 35.622, 281.176)" fill="#088b46" opacity="0.25"/>
  </g>
</svg>
