<svg xmlns="http://www.w3.org/2000/svg" width="28" height="29" viewBox="0 0 28 29">
  <g id="Frame_579518" data-name="Frame 579518" transform="translate(-0.38)">
    <rect id="Rectangle_32" data-name="Rectangle 32" width="28" height="29" rx="14" transform="translate(0.38)" fill="#fffcf2"/>
    <path id="Path_216" data-name="Path 216" d="M24.687,13.01a4.161,4.161,0,0,1-.578.829,4.261,4.261,0,0,1-1.045.881q.017.138.026.259a9.4,9.4,0,0,1-.665,3.6,9.479,9.479,0,0,1-3.773,4.688,9.921,9.921,0,0,1-5.9,1.079A6.784,6.784,0,0,1,9.2,22.972a6.612,6.612,0,0,0,4.731-1.364,3.259,3.259,0,0,1-3-2.227,2.024,2.024,0,0,0,.673.034,6.245,6.245,0,0,0,.76-.1A3.562,3.562,0,0,1,10.2,17.637a3.61,3.61,0,0,1-.363-1.588,3.035,3.035,0,0,0,1.433.432,3.7,3.7,0,0,1-1.407-2.288,4.235,4.235,0,0,1,.388-2.063,10.86,10.86,0,0,0,3.686,2.763,7.632,7.632,0,0,0,2.892.6,3.865,3.865,0,0,1,.388-2.452,3.342,3.342,0,0,1,1.994-1.45,2.944,2.944,0,0,1,2.953.915,5.256,5.256,0,0,0,2.055-.76,3.118,3.118,0,0,1-1.416,1.83A8.955,8.955,0,0,0,24.687,13.01Z" transform="translate(-2.603 -3.613)" fill="#098b46"/>
  </g>
</svg>
